<mxfile host="app.diagrams.net" modified="2023-03-30T14:32:06.870Z" agent="Mozilla/5.0 (Macintosh; Intel Mac OS X 10_15_7) AppleWebKit/537.36 (KHTML, like Gecko) Chrome/111.0.0.0 Safari/537.36" etag="LFLoDfadzEFIVmhwphn6" version="21.1.2" type="github">
  <diagram name="Page-1" id="5ruN0vlkSiLClwZPuBt3">
    <mxGraphModel dx="934" dy="591" grid="1" gridSize="10" guides="1" tooltips="1" connect="1" arrows="1" fold="1" page="1" pageScale="1" pageWidth="1654" pageHeight="1169" math="0" shadow="0">
      <root>
        <mxCell id="0" />
        <mxCell id="1" parent="0" />
        <mxCell id="5WDJezlqoj9gCEKwShsY-1" value="" style="image;aspect=fixed;html=1;points=[];align=center;fontSize=12;image=img/lib/azure2/app_services/App_Service_Plans.svg;rounded=1;labelBackgroundColor=none;fillColor=#182E3E;strokeColor=#FFFFFF;fontColor=#FFFFFF;" vertex="1" parent="1">
          <mxGeometry x="450" y="280" width="50" height="50" as="geometry" />
        </mxCell>
        <mxCell id="5WDJezlqoj9gCEKwShsY-2" value="" style="image;aspect=fixed;html=1;points=[];align=center;fontSize=12;image=img/lib/azure2/app_services/App_Services.svg;rounded=1;labelBackgroundColor=none;fillColor=#182E3E;strokeColor=#FFFFFF;fontColor=#FFFFFF;" vertex="1" parent="1">
          <mxGeometry x="470" y="250" width="64" height="64" as="geometry" />
        </mxCell>
        <mxCell id="5WDJezlqoj9gCEKwShsY-3" value="" style="image;aspect=fixed;html=1;points=[];align=center;fontSize=12;image=img/lib/azure2/app_services/App_Service_Plans.svg;rounded=1;labelBackgroundColor=none;fillColor=#182E3E;strokeColor=#FFFFFF;fontColor=#FFFFFF;" vertex="1" parent="1">
          <mxGeometry x="732" y="296" width="50" height="50" as="geometry" />
        </mxCell>
        <mxCell id="5WDJezlqoj9gCEKwShsY-4" value="" style="image;aspect=fixed;html=1;points=[];align=center;fontSize=12;image=img/lib/azure2/app_services/App_Services.svg;rounded=1;labelBackgroundColor=none;fillColor=#182E3E;strokeColor=#FFFFFF;fontColor=#FFFFFF;" vertex="1" parent="1">
          <mxGeometry x="752" y="266" width="64" height="64" as="geometry" />
        </mxCell>
        <mxCell id="5WDJezlqoj9gCEKwShsY-5" value="" style="image;html=1;image=img/lib/clip_art/computers/Server_Rack_128x128.png;rounded=1;labelBackgroundColor=none;fillColor=#182E3E;strokeColor=#FFFFFF;fontColor=#FFFFFF;" vertex="1" parent="1">
          <mxGeometry x="800" y="80" width="80" height="80" as="geometry" />
        </mxCell>
        <mxCell id="5WDJezlqoj9gCEKwShsY-14" style="edgeStyle=orthogonalEdgeStyle;rounded=1;orthogonalLoop=1;jettySize=auto;html=1;entryX=-0.1;entryY=0.5;entryDx=0;entryDy=0;entryPerimeter=0;strokeWidth=2;startArrow=classic;startFill=1;labelBackgroundColor=none;strokeColor=#23445D;fontColor=default;" edge="1" parent="1" source="5WDJezlqoj9gCEKwShsY-7" target="5WDJezlqoj9gCEKwShsY-1">
          <mxGeometry relative="1" as="geometry" />
        </mxCell>
        <mxCell id="5WDJezlqoj9gCEKwShsY-7" value="" style="image;aspect=fixed;html=1;points=[];align=center;fontSize=12;image=img/lib/azure2/app_services/API_Management_Services.svg;rounded=1;labelBackgroundColor=none;fillColor=#182E3E;strokeColor=#FFFFFF;fontColor=#FFFFFF;" vertex="1" parent="1">
          <mxGeometry x="250" y="275" width="65" height="60" as="geometry" />
        </mxCell>
        <mxCell id="5WDJezlqoj9gCEKwShsY-13" style="edgeStyle=orthogonalEdgeStyle;rounded=1;orthogonalLoop=1;jettySize=auto;html=1;exitX=0.5;exitY=1;exitDx=0;exitDy=0;startArrow=classic;startFill=1;endArrow=none;endFill=0;strokeWidth=3;labelBackgroundColor=none;strokeColor=#23445D;fontColor=default;" edge="1" parent="1" source="5WDJezlqoj9gCEKwShsY-8" target="5WDJezlqoj9gCEKwShsY-2">
          <mxGeometry relative="1" as="geometry" />
        </mxCell>
        <mxCell id="5WDJezlqoj9gCEKwShsY-8" value="" style="shape=image;verticalLabelPosition=bottom;labelBackgroundColor=none;verticalAlign=top;aspect=fixed;imageAspect=0;image=data:image/svg+xml,PHN2ZyB4bWxuczpkYz0iaHR0cDovL3B1cmwub3JnL2RjL2VsZW1lbnRzLzEuMS8iIHhtbG5zOmNjPSJodHRwOi8vY3JlYXRpdmVjb21tb25zLm9yZy9ucyMiIHhtbG5zOnJkZj0iaHR0cDovL3d3dy53My5vcmcvMTk5OS8wMi8yMi1yZGYtc3ludGF4LW5zIyIgeG1sbnM6c3ZnPSJodHRwOi8vd3d3LnczLm9yZy8yMDAwL3N2ZyIgeG1sbnM9Imh0dHA6Ly93d3cudzMub3JnLzIwMDAvc3ZnIiB4bWxuczpzb2RpcG9kaT0iaHR0cDovL3NvZGlwb2RpLnNvdXJjZWZvcmdlLm5ldC9EVEQvc29kaXBvZGktMC5kdGQiIHhtbG5zOmlua3NjYXBlPSJodHRwOi8vd3d3Lmlua3NjYXBlLm9yZy9uYW1lc3BhY2VzL2lua3NjYXBlIiB2ZXJzaW9uPSIxLjEiIGlkPSJzdmc4MjQ1OSIgaW5rc2NhcGU6dmVyc2lvbj0iMC45Mi4zICgyNDA1NTQ2LCAyMDE4LTAzLTExKSIgc29kaXBvZGk6ZG9jbmFtZT0ia2V5X3ZhdWx0LnN2ZyIgeD0iMHB4IiB5PSIwcHgiIHZpZXdCb3g9IjAgMCA4OS42OSAxMDAuMTEiIHN0eWxlPSJlbmFibGUtYmFja2dyb3VuZDpuZXcgMCAwIDg5LjY5IDEwMC4xMTsiIHhtbDpzcGFjZT0icHJlc2VydmUiPjxtZXRhZGF0YSBpZD0ibWV0YWRhdGEyMzQ4Ij48cmRmOlJERj48Y2M6V29yayByZGY6YWJvdXQ9IiI+PGRjOmZvcm1hdD5pbWFnZS9zdmcreG1sPC9kYzpmb3JtYXQ+PGRjOnR5cGUgcmRmOnJlc291cmNlPSJodHRwOi8vcHVybC5vcmcvZGMvZGNtaXR5cGUvU3RpbGxJbWFnZSIvPjxkYzp0aXRsZS8+PC9jYzpXb3JrPjwvcmRmOlJERj48L21ldGFkYXRhPjxkZWZzIGlkPSJkZWZzMjM0NiIvPiYjeGE7PGZpbHRlciBpZD0iZmlsdGVyXzIiPiYjeGE7CTxmZUdhdXNzaWFuQmx1ciBpZD0iZmVHYXVzc2lhbkJsdXI4MjQzMiIgc3RkRGV2aWF0aW9uPSIyIi8+JiN4YTs8L2ZpbHRlcj4mI3hhOzxzb2RpcG9kaTpuYW1lZHZpZXcgYm9yZGVyY29sb3I9IiM2NjY2NjYiIGJvcmRlcm9wYWNpdHk9IjEiIGZpdC1tYXJnaW4tYm90dG9tPSIwIiBmaXQtbWFyZ2luLWxlZnQ9IjAiIGZpdC1tYXJnaW4tcmlnaHQ9IjAiIGZpdC1tYXJnaW4tdG9wPSIwIiBncmlkdG9sZXJhbmNlPSIxMCIgZ3VpZGV0b2xlcmFuY2U9IjEwIiBpZD0ibmFtZWR2aWV3ODI0NjEiIGlua3NjYXBlOmN1cnJlbnQtbGF5ZXI9InN2ZzgyNDU5IiBpbmtzY2FwZTpjeD0iNzMuODY0NzI3IiBpbmtzY2FwZTpjeT0iNTIuMzM5MjAxIiBpbmtzY2FwZTpwYWdlb3BhY2l0eT0iMCIgaW5rc2NhcGU6cGFnZXNoYWRvdz0iMiIgaW5rc2NhcGU6d2luZG93LWhlaWdodD0iMTAxNyIgaW5rc2NhcGU6d2luZG93LW1heGltaXplZD0iMSIgaW5rc2NhcGU6d2luZG93LXdpZHRoPSIxOTIwIiBpbmtzY2FwZTp3aW5kb3cteD0iLTgiIGlua3NjYXBlOndpbmRvdy15PSItOCIgaW5rc2NhcGU6em9vbT0iMy42OTA2MTY0IiBvYmplY3R0b2xlcmFuY2U9IjEwIiBwYWdlY29sb3I9IiNmZmZmZmYiIHNob3dncmlkPSJmYWxzZSI+JiN4YTsJPC9zb2RpcG9kaTpuYW1lZHZpZXc+JiN4YTsmI3hhOzxwYXRoIGlkPSJwYXRoODI0NDUiIGlua3NjYXBlOmNvbm5lY3Rvci1jdXJ2YXR1cmU9IjAiIHN0eWxlPSJmaWxsOiM3RkJBMDA7IiBkPSJNODkuNjksNTUuMjZjMC0xNC42Mi03LTI3LjQzLTE3LjYxLTM1LjY0ICBjMCwwLjQsMCwxLDAsMS40YzAsNC40MS0xLjIxLDguNjEtMy4wMSwxMi4yMWM1LjIxLDUuODEsOC40MSwxMy40Miw4LjQxLDIxLjgzYzAsMTguMDItMTQuNjEsMzIuNjMtMzIuNjMsMzIuNjMgIFMxMi4yMSw3My4wOCwxMi4yMSw1NS4wNmMwLTkuMDEsMy42MS0xNy4wMiw5LjQxLTIzLjAzYy0xLjYtMy40LTIuNi03LjItMi42LTExLjIxYzAtMC44LDAtMS44LDAuMi0yLjZDNy42MSwyNi4yMywwLDM5Ljg0LDAsNTUuMDYgIGMwLDI1LjAyLDIwLjAyLDQ1LjA1LDQ0Ljg1LDQ1LjA1QzY5LjY3LDEwMC4xMSw4OS42OSw4MC4wOCw4OS42OSw1NS4yNnoiLz4mI3hhOyYjeGE7PHBhdGggaWQ9InBhdGg4MjQ1MyIgaW5rc2NhcGU6Y29ubmVjdG9yLWN1cnZhdHVyZT0iMCIgc3R5bGU9ImZpbGw6I0ZDRDExNjsiIGQ9Ik00NS40NSwwQzM0LjA0LDAsMjQuODMsOS4yMSwyNC44MywyMC42MiAgYzAsOS40MSw2LjIxLDE3LjIyLDE0LjgyLDE5LjgydjIwLjQzaC05LjYxdjEwLjQxaDkuNjF2Ny42MWgxMS40MVY0MC4yNGM4LjYxLTIuNCwxNC44MS0xMC40MSwxNC44MS0xOS44MiAgQzY2LjA3LDkuMjEsNTYuODYsMCw0NS40NSwweiBNNDUuNDUsMTAuODFjNS40MSwwLDkuODEsNC40MSw5LjgxLDkuODFjMCw1LjQxLTQuNCw5LjgxLTkuODEsOS44MWMtNS40LDAtOS44MS00LjQtOS44MS05LjgxICBDMzUuNjQsMTUuMjIsNDAuMDUsMTAuODEsNDUuNDUsMTAuODF6Ii8+JiN4YTs8L3N2Zz4=;rounded=1;fillColor=#182E3E;strokeColor=#FFFFFF;fontColor=#FFFFFF;" vertex="1" parent="1">
          <mxGeometry x="466" y="17.5" width="72" height="80" as="geometry" />
        </mxCell>
        <mxCell id="5WDJezlqoj9gCEKwShsY-9" value="" style="image;aspect=fixed;html=1;points=[];align=center;fontSize=12;image=img/lib/azure2/devops/Application_Insights.svg;rounded=1;labelBackgroundColor=none;fillColor=#182E3E;strokeColor=#FFFFFF;fontColor=#FFFFFF;" vertex="1" parent="1">
          <mxGeometry x="600" y="26" width="44" height="63" as="geometry" />
        </mxCell>
        <mxCell id="5WDJezlqoj9gCEKwShsY-10" value="" style="image;aspect=fixed;html=1;points=[];align=center;fontSize=12;image=img/lib/azure2/management_governance/Monitor.svg;rounded=1;labelBackgroundColor=none;fillColor=#182E3E;strokeColor=#FFFFFF;fontColor=#FFFFFF;" vertex="1" parent="1">
          <mxGeometry x="660" y="26" width="64" height="64" as="geometry" />
        </mxCell>
        <mxCell id="5WDJezlqoj9gCEKwShsY-11" value="" style="image;aspect=fixed;html=1;points=[];align=center;fontSize=12;image=img/lib/azure2/other/Azure_Monitor_Dashboard.svg;rounded=1;labelBackgroundColor=none;fillColor=#182E3E;strokeColor=#FFFFFF;fontColor=#FFFFFF;" vertex="1" parent="1">
          <mxGeometry x="740" y="25.799999999999997" width="68" height="63.2" as="geometry" />
        </mxCell>
        <mxCell id="5WDJezlqoj9gCEKwShsY-15" style="edgeStyle=orthogonalEdgeStyle;rounded=1;orthogonalLoop=1;jettySize=auto;html=1;entryX=-0.015;entryY=0.517;entryDx=0;entryDy=0;entryPerimeter=0;strokeWidth=2;labelBackgroundColor=none;strokeColor=#23445D;fontColor=default;" edge="1" parent="1" source="5WDJezlqoj9gCEKwShsY-12" target="5WDJezlqoj9gCEKwShsY-7">
          <mxGeometry relative="1" as="geometry" />
        </mxCell>
        <mxCell id="5WDJezlqoj9gCEKwShsY-17" style="edgeStyle=orthogonalEdgeStyle;rounded=0;orthogonalLoop=1;jettySize=auto;html=1;exitX=0.5;exitY=0;exitDx=0;exitDy=0;entryX=0.014;entryY=0.531;entryDx=0;entryDy=0;entryPerimeter=0;strokeWidth=2;startArrow=classic;startFill=1;labelBackgroundColor=none;strokeColor=#23445D;fontColor=default;" edge="1" parent="1" source="5WDJezlqoj9gCEKwShsY-12" target="5WDJezlqoj9gCEKwShsY-16">
          <mxGeometry relative="1" as="geometry" />
        </mxCell>
        <mxCell id="5WDJezlqoj9gCEKwShsY-12" value="" style="image;html=1;image=img/lib/clip_art/people/Suit_Man_128x128.png;rounded=1;labelBackgroundColor=none;fillColor=#182E3E;strokeColor=#FFFFFF;fontColor=#FFFFFF;" vertex="1" parent="1">
          <mxGeometry x="60" y="266" width="80" height="80" as="geometry" />
        </mxCell>
        <mxCell id="5WDJezlqoj9gCEKwShsY-16" value="" style="image;aspect=fixed;html=1;points=[];align=center;fontSize=12;image=img/lib/azure2/identity/Azure_Active_Directory.svg;rounded=1;labelBackgroundColor=none;fillColor=#182E3E;strokeColor=#FFFFFF;fontColor=#FFFFFF;" vertex="1" parent="1">
          <mxGeometry x="257.58" y="36.5" width="57.42" height="52.5" as="geometry" />
        </mxCell>
        <mxCell id="5WDJezlqoj9gCEKwShsY-18" value="" style="image;aspect=fixed;html=1;points=[];align=center;fontSize=12;image=img/lib/azure2/devops/Azure_DevOps.svg;sketch=1;hachureGap=4;jiggle=2;curveFitting=1;strokeColor=#FFFFFF;fontFamily=Architects Daughter;fontSource=https%3A%2F%2Ffonts.googleapis.com%2Fcss%3Ffamily%3DArchitects%2BDaughter;fontColor=#FFFFFF;fillColor=#182E3E;" vertex="1" parent="1">
          <mxGeometry x="380" y="370" width="64" height="64" as="geometry" />
        </mxCell>
        <mxCell id="5WDJezlqoj9gCEKwShsY-19" value="" style="image;aspect=fixed;html=1;points=[];align=center;fontSize=12;image=img/lib/azure2/general/Code.svg;sketch=1;hachureGap=4;jiggle=2;curveFitting=1;strokeColor=#FFFFFF;fontFamily=Architects Daughter;fontSource=https%3A%2F%2Ffonts.googleapis.com%2Fcss%3Ffamily%3DArchitects%2BDaughter;fontColor=#FFFFFF;fillColor=#182E3E;" vertex="1" parent="1">
          <mxGeometry x="240" y="480" width="70" height="56.88" as="geometry" />
        </mxCell>
        <mxCell id="5WDJezlqoj9gCEKwShsY-20" value="" style="shape=image;verticalLabelPosition=bottom;labelBackgroundColor=default;verticalAlign=top;aspect=fixed;imageAspect=0;image=data:image/png,iVBORw0KGgoAAAANSUhEUgAAAdAAAAICCAYAAAB/Q5y5AAAKqmlDQ1BJQ0MgUHJvZmlsZQAASImVlwdUk9kSgO//p4eElhDphN4E6QSQEkILXTrYCEmAQAgxEFTEhiyuwIqiIoKKoIsiCq4FkLUiim1RLNhdkEVAWRcLNlTeD5wEd9957503OXPmy2Tu3Ln3/JMzPwBkZY5YLISVAcgQZUsi/L3pcfEJdNwggJCPEqADcw43S8wMDw8GiMjs3+V9DxKLyG2ryVz//vt/FRUeP4sLABSOcBIvi5uB8HFEX3DFkmwAUHsQv+HSbPEkdyBMlSAFInx/klOmeWSSk6YYDaZioiJYCFMBwJM4HEkKACQ64qfncFOQPCQvhG1EPIEIYTHCHhkZmTyEjyBshsQgPtJkfkbSd3lS/pYzSZ6Tw0mR8/RZpgTvI8gSCznL/8/r+N+SIZTK9jBBlJQqCYhArCpyZ/fTM4PkLEoKDZOxgDcVP8Wp0oBoGXOzWAky5nF8guRrhaHBMk4W+LHlebLZUTLmZ/lGyliSGSHfK1nCYsqYI5nZV5oeLfen8tny/LmpUbEyzhHEhMo4Kz0yaCaGJfdLpBHy+vkif++Zff3kZ8/I+u68ArZ8bXZqVID87JyZ+vki5kzOrDh5bTy+j+9MTLQ8XpztLd9LLAyXx/OF/nJ/Vk6kfG028kDOrA2X32EaJzBcxoAFMoEQUQnSdcHINx8AsvnLsicPwsoUL5cIUlKz6Uykw/h0tohrPZtuZ2NnD8Bkv04/Dm9pU30I0a7O+IRmADg7Iz2SN+PjIT3aivSSStqMzwS5R2UMAGf8uVJJzrRvqpcwgIj8D1CBBtAFhsAMWAE74ATcgBfwBYEgDESBeLAIcEEqyEAqXwrywFpQCIrBJrANVIJqsBccAIfBUdACToHz4BK4Bm6Cu+AR6AUD4CUYBe/BOARBOIgMUSANSA8yhiwhO4gBeUC+UDAUAcVDiVAKJIKkUB60DiqGyqBKqAaqh36BTkLnoStQN/QA6oOGoTfQZxgFk2AqrAObwHNgBsyEg+AoeCGcAi+Bc+ECeCNcAdfCh+Bm+Dx8Db4L98Iv4TEUQCmgaCh9lBWKgWKhwlAJqGSUBLUKVYQqR9WiGlFtqE7UbVQvagT1CY1FU9B0tBXaDR2AjkZz0UvQq9Al6Er0AXQzugN9G92HHkV/w5Ax2hhLjCuGjYnDpGCWYgox5Zg6zAnMRcxdzADmPRaLpWFNsc7YAGw8Ng27AluC3YVtwp7DdmP7sWM4HE4DZ4lzx4XhOLhsXCFuB+4Q7izuFm4A9xGvgNfD2+H98Al4ET4fX44/iD+Dv4UfxI8TlAnGBFdCGIFHWE4oJewjtBFuEAYI40QVoinRnRhFTCOuJVYQG4kXiY+JbxUUFAwUXBTmKQgU1ihUKBxRuKzQp/CJpEqyILFIC0hS0kbSftI50gPSWzKZbEL2IieQs8kbyfXkC+Sn5I+KFEVrRbYiT3G1YpVis+ItxVdKBCVjJabSIqVcpXKlY0o3lEaUCcomyixljvIq5Srlk8r3lMdUKCq2KmEqGSolKgdVrqgMqeJUTVR9VXmqBap7VS+o9lNQFEMKi8KlrKPso1ykDFCxVFMqm5pGLaYepnZRR9VU1RzUYtSWqVWpnVbrpaFoJjQ2TUgrpR2l9dA+z9KZxZzFn7VhVuOsW7M+qGupe6nz1YvUm9Tvqn/WoGv4aqRrbNZo0Xiiida00JynuVRzt+ZFzREtqpabFlerSOuo1kNtWNtCO0J7hfZe7evaYzq6Ov46Yp0dOhd0RnRpul66abpbdc/oDutR9Dz0BHpb9c7qvaCr0Zl0Ib2C3kEf1dfWD9CX6tfod+mPG5gaRBvkGzQZPDEkGjIMkw23GrYbjhrpGYUY5Rk1GD00JhgzjFONtxt3Gn8wMTWJNVlv0mIyZKpuyjbNNW0wfWxGNvM0W2JWa3bHHGvOME8332V+0wK2cLRItaiyuGEJWzpZCix3WXbPxsx2mS2aXTv7nhXJimmVY9Vg1WdNsw62zrdusX41x2hOwpzNczrnfLNxtBHa7LN5ZKtqG2ibb9tm+8bOwo5rV2V3x55s72e/2r7V/rWDpQPfYbfDfUeKY4jjesd2x69Ozk4Sp0anYWcj50Tnnc73GFRGOKOEcdkF4+LtstrllMsnVyfXbNejrn+5Wbmlux10G5prOpc/d9/cfncDd457jXuvB90j0WOPR6+nvifHs9bzmZehF8+rzmuQac5MYx5ivvK28ZZ4n/D+wHJlrWSd80H5+PsU+XT5qvpG+1b6PvUz8Evxa/Ab9Xf0X+F/LgATEBSwOeAeW4fNZdezRwOdA1cGdgSRgiKDKoOeBVsES4LbQuCQwJAtIY9DjUNFoS1hIIwdtiXsSbhp+JLwX+dh54XPq5r3PMI2Ii+iM5ISuTjyYOT7KO+o0qhH0WbR0uj2GKWYBTH1MR9ifWLLYnvj5sStjLsWrxkviG9NwCXEJNQljM33nb9t/sACxwWFC3oWmi5ctvDKIs1FwkWnFyst5iw+lohJjE08mPiFE8ap5YwlsZN2Jo1yWdzt3Jc8L95W3jDfnV/GH0x2Ty5LHkpxT9mSMpzqmVqeOiJgCSoFr9MC0qrTPqSHpe9PnxDGCpsy8BmJGSdFqqJ0UUembuayzG6xpbhQ3LvEdcm2JaOSIEldFpS1MKs1m4oMRtelZtIfpH05HjlVOR+Xxiw9tkxlmWjZ9eUWyzcsH8z1y/15BXoFd0V7nn7e2ry+lcyVNaugVUmr2lcbri5YPbDGf82BtcS16Wt/y7fJL8t/ty52XVuBTsGagv4f/H9oKFQslBTeW++2vvpH9I+CH7s22G/YseFbEa/oarFNcXnxlxJuydWfbH+q+GliY/LGrlKn0t2bsJtEm3o2e24+UKZSllvWvyVkS/NW+taire+2Ld52pdyhvHo7cbt0e29FcEXrDqMdm3Z8qUytvFvlXdW0U3vnhp0fdvF23drttbuxWqe6uPrzHsGe+zX+Nc21JrXle7F7c/Y+3xezr/Nnxs/1dZp1xXVf94v29x6IONBR71xff1D7YGkD3CBtGD604NDNwz6HWxutGmuaaE3FR8AR6ZEXvyT+0nM06Gj7McaxxuPGx3eeoJwoaoaalzePtqS29LbGt3afDDzZ3ubWduJX61/3n9I/VXVa7XTpGeKZgjMTZ3PPjp0Tnxs5n3K+v31x+6MLcRfudMzr6LoYdPHyJb9LFzqZnWcvu18+dcX1ysmrjKst15yuNV93vH7iN8ffTnQ5dTXfcL7RetPlZlv33O4ztzxvnb/tc/vSHfada3dD73b3RPfcv7fgXu993v2hB8IHrx/mPBx/tOYx5nHRE+Un5U+1n9b+bv57U69T7+k+n77rzyKfPern9r/8I+uPLwMFz8nPywf1BuuH7IZODfsN33wx/8XAS/HL8ZHCP1X+3PnK7NXxv7z+uj4aNzrwWvJ64k3JW423+985vGsfCx97+j7j/fiHoo8aHw98Ynzq/Bz7eXB86Rfcl4qv5l/bvgV9ezyRMTEh5kg4U6MAClE4ORmAN/sBIMcDQLkJAHH+9Dw9JdD0O8AUgf/E0zP3lDgBsPccAFFrAAhD7G7EmiCq5AXA5EgU5QVge3u5ymbfqTl9UrDIG8ueyXkS9NStl+WUy/QM/13d/7RgMqsD+Kf9F94tAvmvPJmlAAAAlmVYSWZNTQAqAAAACAAFARIAAwAAAAEAAQAAARoABQAAAAEAAABKARsABQAAAAEAAABSASgAAwAAAAEAAgAAh2kABAAAAAEAAABaAAAAAAAAAJAAAAABAAAAkAAAAAEAA5KGAAcAAAASAAAAhKACAAQAAAABAAAB0KADAAQAAAABAAACAgAAAABBU0NJSQAAAFNjcmVlbnNob3Rzp7A8AAAACXBIWXMAABYlAAAWJQFJUiTwAAAC22lUWHRYTUw6Y29tLmFkb2JlLnhtcAAAAAAAPHg6eG1wbWV0YSB4bWxuczp4PSJhZG9iZTpuczptZXRhLyIgeDp4bXB0az0iWE1QIENvcmUgNi4wLjAiPgogICA8cmRmOlJERiB4bWxuczpyZGY9Imh0dHA6Ly93d3cudzMub3JnLzE5OTkvMDIvMjItcmRmLXN5bnRheC1ucyMiPgogICAgICA8cmRmOkRlc2NyaXB0aW9uIHJkZjphYm91dD0iIgogICAgICAgICAgICB4bWxuczpleGlmPSJodHRwOi8vbnMuYWRvYmUuY29tL2V4aWYvMS4wLyIKICAgICAgICAgICAgeG1sbnM6dGlmZj0iaHR0cDovL25zLmFkb2JlLmNvbS90aWZmLzEuMC8iPgogICAgICAgICA8ZXhpZjpVc2VyQ29tbWVudD5TY3JlZW5zaG90PC9leGlmOlVzZXJDb21tZW50PgogICAgICAgICA8ZXhpZjpQaXhlbFhEaW1lbnNpb24+NDY0PC9leGlmOlBpeGVsWERpbWVuc2lvbj4KICAgICAgICAgPGV4aWY6UGl4ZWxZRGltZW5zaW9uPjUxNDwvZXhpZjpQaXhlbFlEaW1lbnNpb24+CiAgICAgICAgIDx0aWZmOlJlc29sdXRpb25Vbml0PjI8L3RpZmY6UmVzb2x1dGlvblVuaXQ+CiAgICAgICAgIDx0aWZmOlhSZXNvbHV0aW9uPjE0NC8xPC90aWZmOlhSZXNvbHV0aW9uPgogICAgICAgICA8dGlmZjpZUmVzb2x1dGlvbj4xNDQvMTwvdGlmZjpZUmVzb2x1dGlvbj4KICAgICAgICAgPHRpZmY6T3JpZW50YXRpb24+MTwvdGlmZjpPcmllbnRhdGlvbj4KICAgICAgPC9yZGY6RGVzY3JpcHRpb24+CiAgIDwvcmRmOlJERj4KPC94OnhtcG1ldGE+CmWWmmYAAEAASURBVHgB7L1nkyNJli12IyBSlcjSoqv19Mzsm9nZnX2P9szW7NFo/ET+U/4AkmZ8ND7acnd2Zt+Onu5pVV1aZomsSg0gBM+5EYFCVqUIoJBABHC8GwUkEOHhcdzDj1/h9wYpiqkIASEgBISAEBACQyEQDnW0DhYCQkAICAEhIAQcARGoBoIQEAJCQAgIgREQEIGOAJpOEQJCQAgIASEgAtUYEAJCQAgIASEwAgIi0BFA0ylCQAgIASEgBESgGgNCQAgIASEgBEZAQAQ6Amg6RQgIASEgBISACFRjQAgIASEgBITACAiIQEcATacIASEgBISAEBCBagwIASEgBISAEBgBARHoCKDpFCEgBISAEBACIlCNASEgBISAEBACIyAgAh0BNJ0iBISAEBACQkAEqjEgBISAEBACQmAEBESgI4CmU4SAEBACQkAIiEA1BoSAEBACQkAIjICACHQE0HSKEBACQkAICAERqMaAEBACQkAICIEREBCBjgCaThECQkAICAEhIALVGBACQkAICAEhMAICItARQNMpQkAICAEhIAREoBoDQkAICAEhIARGQEAEOgJoOkUICAEhIASEgAhUY0AICAEhIASEwAgIiEBHAE2nCAEhIASEgBAQgWoMCAEhIASEgBAYAQER6Aig6RQhIASEgBAQAiJQjQEhIASEgBAQAiMgIAIdATSdIgSEgBAQAkJABKoxIASEgBAQAkJgBAREoCOAplOEgBAQAkJACIhANQaEgBAQAkJACIyAgAh0BNB0ihAQAkJACAgBEajGgBAQAkJACAiBERAQgY4Amk4RAkJACAgBISAC1RgQAkJACAgBITACAiLQEUDTKUJACAgBISAERKAaA0JACAgBISAERkBABDoCaDpFCAgBISAEhIAIVGNACAgBISAEhMAICIhARwBNpwgBISAEhIAQEIFqDAgBISAEhIAQGAEBEegIoOkUISAEhIAQEAIiUI0BISAEhIAQEAIjICACHQE0nSIEhIAQEAJCQASqMSAEhIAQEAJCYAQERKAjgKZThIAQEAJCQAiIQDUGhIAQEAJCQAiMgIAIdATQdIoQEAJCQAgIARGoxoAQEAJCQAgIgREQEIGOAJpOEQJCQAgIASEgAtUYEAJCQAgIASEwAgIi0BFA0ylCQAgIASEgBESgGgNCQAgIASEgBEZAQAQ6Amg6RQgIASEgBISACFRjQAgIASEgBITACAg0RzhHp9QEgTSJLdrZsp2bX9runW9t7+Ed6z57atH2jlmamgU1uRE1UwjUHQE8bl7C0NpnT9vC1Q9s8cPPbfnTv7Hlz39mQdio+x3OZftFoDPY7fHulvVePrPO2n2Q5l3buvWV7d7+1nZBoJ2nD6y3tQECTUSgM9j3uqUKI8A1a6Np7dXztnj9Y1u68bmt3Ltpew9u2cLlD6x9+bo1z16wsL1Y4ZtQ0wYRCFKUwS/0uaYIeDemFnf2bBcP5NbXv7eNv/ybbX3/NQjzlSXbry3e3rB4b8eSqFvTm1SzhUDdEQgtXFi05tIpa66ctsbKqrVOn7NTP/1bO/vLf7RTP/6FtS99YGGrnd1oIDVRlXtcEmiVe2eotqWWdrvWefCDbfzhV7b+3/9fe/X7f7Ht22sWtFM8kAFWv5naNgj1UA4FrQ4WAmNDILF4dxumlW2ztTVLenhuI7OdBzct2nqNZ7hjZ34WWOvqDQshrapUGwH1ULX7p3TrEjx4uw9v2bP/63+zl7/9lW3fxQP5ah0qIZAlVrGBUdHAz6Wr1IFCQAicAAJcwAZ8HOHCGTQzP869J4/txb/839Zbf2a91+t24b/8r9a+eM2CQhI9gXaoyvdHQAT6/hhOvYYEalvaNre+/Hdb//1vIHV+a9HGc/gJpXBOEGNOvYPUACHwNgL5Yxk4k8IloYdn+MVD2/grSLXRsqXrH1m4uOQ2UTkYvQ1edf7Olj/VaY9aMgIC0ea67dz5xl7/6V9t596dN+Qp+8kIaOoUITAFBOCEm8axdZ49sq3vvrJN+DB0njywZA+qXpXKIiACrWzXlG9Y9OoFHro/2+svf2u9jRdwsM1snVLXlsdQRwqBaSLgmiJIpWkUWeflC9v46re2/cNXrs6dZrt07aMREIEejU8tfu29fgZv2698u0oabUMFBBuLpM9a9J0aKQQKBPjMBk14K/Q2bPObP9jWN3+ETfR58bPeK4iACLSCnVK2SWnc8z1kWze/hg30oSW7PSxhy56t44SAEKgUArSL4pX0urb75LltY49od+0BPHY33J+hUm1VYxwBEWhdBwIchKju2Xt8x3bv/2ARVqppSl/b3DuhrveldguBOUeAz3G817HuizXbe3TXes+fwj6KvS4qlUNABFq5LinXIAqaTqBwNCCJ9rZfQW1L+pQIWg5BHSUEqosA92zH2Be6+wjRwxBRzEiginlTuQ4TgVauS8o2KJNAO1Dx7IFEI4TvCxBnU0UICIF6I+ALYTzL0c4mPHHvwTzzyCyCeUalcghoxq1cl5RsEARNSqC952twfX9qyc6OOyBIg1sSPx0mBCqMAEk0RiKIvWeP8Yw/sQSJIVSqh4AItHp9UrJFqSVxx/eJxbuMb4vTZP4siZ0OEwIVRwAzM52Joq0tD/uXJomMMxXsMhFoBTulbJP4UCWQQtMevW+1Qi2Lm44TApVGgAthvOg4lHT3oL7tgE3l21DFPhOBVrFXyraJTgX+YCE1mYoQEAIzhkCCmLnwdZDzUGX7VQRa2a4p2TCPdatuLImWDhMCtUEgQLT51AOiyDZT1U7TzFvVnlG7hIAQEAJCoNIIiEAr3T1qnBAQAkJACFQVARFoVXtG7RICQkAICIFKIyACrXT3qHFCQAgIASFQVQREoFXtGbVLCAgBISAEKo2ACLTS3aPGCQEhIASEQFUREIFWtWfULiEgBISAEKg0AiLQSnePGicEhIAQEAJVRUAEWtWeUbuEgBAQAkKg0giIQCvdPcc0zqOUHHOMfhYCQqDeCDAQkWbqSvZhs5KtUqNKIBBYsLCIB6uJLA0BQuLib7xUhIAQqD8CiIBrCRfIAZiz0bKgvaRkSxXsVhHoFDrFUxN1kIIMCXMTpCJLO7vIqNJF1oWuZ2CwmKmLmPDzTSDpLCRmiIeID1Xgyel7W+tmL9esaZEFjdCUT3sKnalLCoETQIDx47EstkZ31+K1+7b3p19ZY2k5Sx5xSHD5LF8LltMg3aCJqb3VtqC1gIX2koVLKxaunLYQn52UT6DN81ilCHQivQ4iZNYUpCdKQZLJ9pbFL59aFw9GhIS5yevnFm9tgFC3LekgdVEUgyBBojwHacpSSpcgzaDR8HcnUPwd74KA79+0pbRnaVvPxUS6UhcRAhNAIE0brrUNd19Z/M2f7FW3Z8HisgVIYeir50PawMwtIeeJhQULl09Z4/QZa5y7aI1L16115UNrnb9qwfKKWbPtx4lMDwGy5NfIlnPIcqZkBTrseASY188gccYbr6338on1Ht+z7sNb1n3wg/We3LUIGefj1y/fkGiPa0kQKFJ8pjEkTv6Jt7BN6TO/Hr4LQqw2IXlmQikPUhECQmBWEODC2Qse7TSiNgp/Fc//YTeJOSNsIY/L0iLIc9Uaq+etdemqNa99Yu0Pf2TtG3hd+8iaINLGmXNQDcMM5OqtwyrU90chIAI9Cp1x/IZRH288t+7d72z3y3+3nT//xjr37jhhMlluGjNhLiRIJM1NobqF2JkRZn7t/kPk3HkASR73QI3jHlSHEBAC00XggEf/0AZxTqAaF4trV+U2FyFtLjpZNs5ftIXPv7CVv/8vtvTz/2ztDz61cBESqUj0UDiP+kEq3KPQeY/fMjvnLojzG9v7+ne2+80frXPnO+s8ug317XOoakGchuUiiZGOAoNlgBSDYJgnZ7ASfRYCQmBmEBiYE0rdE01AEV8wG6XQfvk0ArXwxjNoutZ9Dure+dqWfvoPtvjT/2it65/CXko70LAXKtWamT1IBHoCXZtAokw216376I7t/Pa/2c7v/9V2f/gakuhLOAtlEidVtP3Cwa1x24dDH4SAEBgTAvvW3/Cn2Nu26CnMRljEd+7dhjnpkSVbm7b0y8ialz6Eo9Ep97UY09VnvhoR6Li7GCrbFES5d+sr2/nD/2fbv/1n6/zwjUUv1tymGbRht4S77DtS57jbofqEgBAQAliYwyK6b4GedOHIuBVhQf/K0t09i+npC3PSMtS67Rufue1Ukmi5oSMCLYdT6aNSSJ/dBzdt65//T9v4l//Deg8egzh3oR6BF22L1UjULA2mDhQCQmDsCHABD5MoVLupdZ9hJ8B/3wSZPvOtdFTjNpZPw0tX1FAGeKFUBqUyx2AwJtjPuffnX9vWb/6rbf/+ny2CegSbPLGY26dHKVObjhECQkAInCgCvl+0gUv0Nq3z/Xe21fyvWN9jgR93beGzn8HpaAE/asF/VCeIQI9Cp+RvaRJbAttC7/4t2/ndP4E8f2Xd+z/4d8U2k5JV6TAhIASEwOQQID/C4YiORXu3vnbSDCGFhqfOYt/oR/DihdpMjkWH9ocI9FBoyv+QdjuIFvLIdv7yG9v+y2/d2zbZ3sjiV2oBVx5IHSkEhMB0EICZNHr13Ha//QsCMJyx1rWPsZf0lDXPXoA6121P02lXxa8qAh1DB6U7W9a5/TU8bv/J9m7DYQhORG63V2y9MaCrKoSAEDhRBLDIp1007cUI6vLI9m5+g/3qv7bmhavYI7qMcNsi0MPwf2sD4mGH6fujEIghbe5++0fb+vNv4R7+CGoPeNmKPI+CTL8JASFQJQTgpuHzFuauaP2+bf/hX2zv+78gvOhWlVpZubaIQN+nS+A4FD17ZJ2bf7YuJM/k9QY8buUw9D6Q6lwhIASmiwBjdfeePMa89hfrPbqF2N0wR6kciIAI9EBYyn9JlUfn2z8htu1tD8dX/kwdKQSEgBCoHgKM3R1vwDP3wfcwTUEwWF/jnpfqNbQCLRKBvkcnMGNK9Pyx7WKQdZ8+xCDb05aV98BTpwoBIVANBNLejnUfI40awv31kDJRBHpwv8iJ6GBcSn3r3rcvkF3lEYPDP8vOkddtKex0kBAQAtVEIIuS1kP0tCfWuXvT4nUEWYAEqqnt3f6SBPouJiW+YX7P2GK4ffcQoi96vW5Jl7nHSpyqQ4SAEBACVUaATIm5LHoJWyhSL8avXiB0N+Y3lXcQEIG+A8nxX3A1Rukzwsosev0CwYaQlmwgNvzxNegIISAEhEB1EaC8mfZgC93ehj0UAsIm4uZqknunw0Sg70BS4gsnUARhBoHGm/S8jTHcBGUJ5HSIEBACNUAA9Im97BAU4h7muFcuKDBvsWyh+ztPs/5+PMr9RQLtIaPBJtKTcZ9UCvUGY0qqCAEhIARmBAFG8AtAoNHOBqRQBIfpdXBnslMNdq8IdBCNkp8DGtSZ8xP7pRhAPk2jkmfqMCEgBIRAXRBAdKIEwgJSnvlcFyGfqPhzX+eJQPfBUf6PJEkswYos7UGtgc/yUCuPnY4UAkKgLgjAuQPZWdIIL5iqJIHu7zcR6H48Sv2V+QthKQbPtJTqWxUhIASEwCwigGnOpVAEV6DmTWU/AiLQ/XgM8RcHU/Ea4jQdKgSEgBCoFQIUGUSeB3WZCPQgVEp/R8WtlLel4dKBQkAICIEZQkAEOkOdqVsRAkJACAiBySEgAp0c1rqSEBACQkAIzBACItAROjMDTarbEaDTKUJACNQOAc54CK3AjaEq+xBQMPl9cPAPGMuPspcfMoZ4yiE/vXMFfSEEhIAQqDwCGW8ONLOYGI+YI30SnJ+ZUAQ6MDx8lzDjPbq7djFYBg/A5wCbi3FMArfu1Pd/ZlkKggDHa4X2Flj6UwgIgdojgK16TJ7BPKEB5rxMyDhkfqQYEYJ5fS6cfSIVgeajmzEfAwSIT7u7lmDTcEam7w79oNHATxg8G88RRH4LAwuDCgMmbIYWNDlgFNPvXdT0jRAQAnVCgEJCSAEBUxrDltr2a0sw58XOiZj/nEjfuiMcHDSaFiwsmS0s++e3jpi5P+eSQJMtZBd49QwDAsHgt16Z7WyCDHcQlm/P4z2SFA9V44bZqipBCrP43nfW6Kxba7lhjSYGDFdeCio/cw+JbkgIzB8CCaIPgUQXQYobD633zb+arT+0cHk5g+KgoAqYGjkHBo0FC9p4LWJOXDxltnLawtPnrHH6It7P47uVmYETwSUOQmJm7s9vhOoHwyoq7WwjriNy3D1FAuyHN/F+1+IXjy15jaDwe9vZMf28d0eoKMCuVGckuyDePRBvD8Qb43ipcGdr4OhuhMA8I0BqgMYtWFy0BogwaA9KlQfNjyBb4oV5MG22QL44/vRZa65essbFD6x5+WNrXMXr/HWzpdPWAMlao0XWrS3Ks0+gGAQpiC5++cRiEGfv8W2LHv9g0do9JIwFeUISTame6EJNQcmT5bgO5dih2haDywcYpVI/Jwvy53XoHyEgBIRArREAsUGV6/ZPJM9gSL9DNXOD90k/EsyHQWvBJdbwFKTPsyDRCyDRq59Y69pnFl77xJoXblh45gKIGSrfmgofs0+gsGdGj2/Z3l9/ZXt//G/Wu/kXS7aQBJuDASVz/qnvCmhw3OqzEBACQqAyCBRCKknYFZ0QOpaWIYl+aO2f/Cdb/Nn/aK3Pf2HhhetQ+0ISrWGZXQJFpzFfZ/fr31j3r7+27q0vrfvkDuyd61C/IoOKFxBnZtLM/9abEBACQkAIjA2BARL1OkM4GUG121g+a43rn1v7i1/aws/+0Vo/+o8WLizml63PpDyTTkRpF/nrYNvs3f6j7f35n61z8w8WP39oCeycmY5eEufYHhBVJASEgBA4DIGCC2niIplSGoUfSrSzZTHe093M94SZrZof/dQaK+fNYD+tS5k9AoWzUALbZvfbf7O9P/0TSPQvmaNQFx3FDgy1zaQug1PtFAJCYIYQKMiUJMrcotvr1nv4XaYRxPZBg53VPoNK9zTsojWZp2eLQKFnj18/s96tP9vuH/8f63z5a9g7133VE9BI7dtMZmhA6laEgBAQAnVDwB2MKJHCzLb9ynr3vrZ0Z8PvIsQWl+AjbIFZPlMLx6LZIlA4DPVu/9l2fvO/W+f7f0fnvEanwCNMxFm3R0ztFQJCYNYRIJFSIRh3LIKJjeY2OhstIUhD+yf/A1S57cojMBMEypB6trdl3btwFPrrv1n33l99byd2AqMDZO+s/ChUA4WAEJhvBKC+JYnad7/zLS/BCpyMuN2l4ltcZoJAAwQ1iJ4/cG/bzg9/wN7Op+DOLvToUNsWevf5Hp66eyEgBIRANRGggxE0hQxmE63dte73v8f+0PPY8nLaUgRgYHjAqpbqtqwsYpA+E8Sk7T26Cceh38EofRMdAYM0Jc+abs4te+s6TggIASEwEwiARNMAjkUIq9qFTTQ8hQhG1yGBIooRg9VUVRKqvX4z7XXgdfvUeve/weuWRxbiaiZoSPSciQdLNyEEhMBcIMBEHZy742fQJt7GfP7oBzfNuYmuogjUnkDpZUvbJz25ku4OVisUqmt/WxUdLmqWEBACQuDkEUh2XlvvzldwCv3SUib8qGipPdOkEPmjB99htXLLDHs9gxCbPSV8VnS4qVlCQAgIgaMQACXBd4VBb3qPvrfug+898MJRZ0zzt3oTKPcR7W5Y9PSeJc8fw3EIWVHcID1NSHVtISAEhIAQGAkBCj+cw6FNjNYeeOYsz5Q1UmUnf1J9CZRZVhCyL918heAJa9jzuYF9uTBCqwgBISAEhEB9EQCJphF8W9ZfIorcI8+mVdW5vbYEmmDrSrz+zKIXDxHFYsujWtR3xKjlQkAICAEhUCDAgApJZxcC0rrFmy/cmYiRi6pWakugAaTNZOeVZ1xJsFphydO5Vg1jtUcICAEhIASGRABpuS3tITHIxguEZH0N/hSBDgnh4Yd7klckyk62NizoIQixbJ+Hg6VfhIAQEAI1QsC38FOVi9STyfYm9vZDy1hBE119AymksHciYEKKIAop1Lm+c0XetzV6RNRUISAEhMBhCFCfiP+iGHP8NvxdEBxHKtzDwBr++wC7VWhoNoj4ljDmrYoQEAJCQAjMDAIQiBIKSkxzFmGOh120aqW2NlAamdM4yyvHzypCQAgIASEwWwi4oETbJ+f4Ck7ztSXQbJgQ1AqiOltjWHcjBISAEJgSApzf4ZFbRfZEy2pOoFPqU11WCAgBISAEJoAAHVuq69xScwKtNrgTGF26hBAQAkJg5hGoKlFVtV0zPyB0g0JACAgBIVBvBESg9e4/tV4ICAEhIASmhIAIdErA67JCQAgIASFQbwTqG0ih3rjPV+tHcZSurt/AfPXdLNztceNPY20Wenkq9yACnQrsc3JRn7jogD78DBX49qRcQTL86XMCsG7zSAT6xHlMDFU/DmNN4+xIOPXjuwiIQN/FRN+MBYF8QkKM4pHnpZyAx9IcVTJ/CDA+tg++fCF2FAIVDBN3VHP1WzUQEIFWox9q2wqPAkWiwwSUZUsIrbGwaCFf7SW82ha0FixcOmUh3oOjgv4jJGOCsF1JZ89ipDJKOjue8zVBHMyU38cxcgZwUgQpM9r0yMxcW7jV8AIBjDnEIvNx5zFSKWQ6CWJsNPFqYeytYMwtnvYxmIaN4sw379BypBhTjLMa7yCf8A5jrna8Xh9fzrvFeMO1jhq7b2rVpzlCQAQ6R509llvlnFVEfwKJhc02iLGFSQvk2MLn5iIIdMmCxSVrtEmii/59EwQatBcQugMT2WGrfYZmjLoWY0JL9kCiyEpPMmVewAQTW9LD5IZXwhRHnOiYRAAxSpxQyaYi1LF0cWUrQUi3QXMAx1vAMYYx5585FvEyLtoWlq25ctqCpRVfuFmzhfHBAfJmkDCjU+DjDeNph5mdkJhidxsLNcRejTHOul2Mxz2QavZufn22gGONxFpZpNSwCSEgAp0Q0DNzGc4dPoE0nTgbp85Yc/msNTBZNVbO4nNGlJzIggaIlYTZ4LH8m1KAL+sPgCOLd8lJrYnA0UyYbkxlhFfa5WvXIhLr1ivrbaxbD4l2E0x2GYmyumPsXAdcUV/VBAEs2pyswibeIF02MIYwnhqnzlnjDF6n8cLYC5fP+MKNmg8Sq78aJFUu8JqWYhx6IZG69IkxBgJNGagcizJqPdJdLNqwcEuRKjFGDkqOt3jzlUVb60iphcQVcRfnIsC5ihAAAiJQDYNyCHASA0lR0gzby1CNQdJcOmOt1QvWxATWOn3e3wMQqUuZPNzP8X98wjo2bjEmNi7q+QpdWuAHTJaUeKHCTfd2MJm9tO76mjVePcMEh8mN0im+zyRSTm6ZRIozVeqOQD502Keu4YBmI1w8ZQ0u0qCabZy7bK3zV6yxeglEesFCEGoIidOg6fCFG++f6yqu2fKFXPYHRxhIkPkleyDPYk0Xc5x1MZ6wMNsBaSKRc/TqucWvn2O8PbVkE4S6/dpiLNyM2hFmCSkyQUm9C0znr4hA56/Ph79jTGBpAtUVJqEGpM325Q9s8cqH1j5/zdVjAVf2kA6c7HBcf1IZ9kqFanjwPNiosgJyhWTRPHfNmquXbRmTV4wkuz0Q6e7TO9Z9/jSTGCBJ+FzGOVKl/ghw7GFJ1Vg+ba2rH1vr+ufWvvqJNc9cMYONs4HFXEC1bRPaDZJkiI4fVNVS6cHiizCQ5b6CsUpptiicDRtQCUO6tdPQqly4YQs9aEGgxqWE2lt/ar3Hd637+AeLnt61FGMvLQi0qEPvc4WACHSuurv8zbqdEzYfqmEbsF82Tq9C2ryMieu8tfiCxBliUvNJq5AWDyLA8pc8/khKo+5EBHsWHJIabajm6Ji0uGzt1WtQ7b6w3mtKDc8ye2mewT7gpKpSDwTAaW6bBBkGGHc+5q59as3zV60FibNxDhInpU1Iogbbezb+MC7YxTi3/+53+/YX/PuY4uOLJIypkbMjbazJMj6k+HjKmqdWrXnxusUffGG9tXvWXXuI8bYGiRVOSLSpshGyjx4D8uz8LAKdnb4cz50UcwxIMVyguuw0yOmCtS5cs4VLH2DiWnHnINqgfPIaz1XL1VIQNY/m5wbUyStNW4Bk2jqNNm5ftO7LNevi797GS9hItyA9IJM98wlqUiuH8bSO6o+70L1mQ9g0WyCq9geQOD/9ObQOlzD24BQEQjNKnC45kujInCwkruxT9m9RYfE++Nsxn/t1okIuvkiqKMEp2Fm5WDt72RJoYBoXoYE5dwtS6T2Lnj+Cive5O73BqJqT+YB0e8wl9XM9ERCB1rPfTrbVIJsGJLs2SLMNGxNX/pzAaOvsezNS2iQxTbIcJOFSdbwEIoXXZRsvSiYtOJN0Xz62zsun1oX9KtnefDPPTrK9ulY5BAqOg9QZwn7ZOHsJ6tpPbOH6Z9aCpNfE52AJUiD7moXjgLZunsf3cZZ9Y6xoGEiU5AxTRUCHJCwiwxU6LGGLDDQxrfPXrffktnXuf5sR6c7WGzMGz1OZWQREoDPbtaPdGD1lfRLDxLD04Re2ePkjC+Hp6MRJe+SkSfO42+CE59tZcCAm3+YiyB6k3zx73ic67ufrwMsyde/JMU+2x7VNv5dDgPwEb1kSU4vk+eGPbfHTnzl5hqsX8WPOQkU/l6t1jEeRsFHdPnIFn8KUwZdBxUz7bIC9zx1Ixr01SKPYFpMdrzE3xo6oXFUi0Mp1yRQaxPkBk0OIh59bAxavfGRLH/zI7Z3hArwaqf6sGnEeBBMnOJ+vUthsz9sy7LfuIbz6wHbuf2cxPCjdTsUJWZLBQQhO9juOO9oNW4tu41z4+G9s8cf/YA0sgMIVetRC6mRfvUVck23kEVdz0wB+h2RM57blv/ufoKm5Yp1bX1r34U2L1p9g3zI8wzko+QypzBwCItCZ69IhboirahbMUQx6wNU/7Zztqx9BfXvd99pltsMKT2LZHbz5t5hsufcUdrQFqNzcqxKT3d7zBxa9xv7R3i5uGfeE/1WmgACJE/9RO8AFWuvax7bwEcjzk59Z+8aPoZLHoo0etVUmT4fNbyRrJ7bYNKABaeMrj7wFp7vuI9hHn9yBg9EmFgrY8sL9MhpzUxhwJ3dJEejJYVuPmuEgQZVtC44RlDwXrn4IL1uozTAh9EtBSv0vavCBky/U0VQLtt0JBBM2NtPvYWKO1mEXjbE1QWXyCPiiDd7dkNrYN81zV23h878Def4tbJ0fY2vKGfAMiMaPwz91GXscbyE81uGp7gTKIA8rq75Q6609gEr3FXyLSKIqs4SACHSWenOYe+EEBTJh2L0mtgUswWFjAZJnkzYnqNRcZXsSkxcnmqPKuK5Z1MPJmCR68QYmbRAqSHUPbei+gHrNt7nIRnVUd4z9Nzr9UDsAR6/mRewn/uxntvijX1rzyqcWcFsU91VyL3HGoGO//IlVyPviC4vRsHXJ2oz9DI9dXwBAC9LDXuUEEbRShgk85hE4sTaq4rEjIAIdO6T1qJAqtAa2AzTPXnR75wrsT646I8H1gxecwL0UxHYCVR9YZXE9TNotOEQ1GfINE1u0g6gyuwjdhvi7XjSpHQjfuL+krd3NBSTPL/7eVn75P1sAe7WrbEkudS90dOIzRIe2Szd8G1iwTD8CLNpgD6U6FzYE/C2baN27mu0Xgc5CLw5zD1zc4/mmNNaEd+0S1bbXP4GUBpUtH/z3LayD1fgEgQ9clTPWaNQBMWPiADkzBBoDxrsEiOM4oTYgJXJy9ahG3OsHB6CsPbkaj0RYkOGobUTbGHRhAfsLT0FtuHMfjh4I1ZbAQ9ezb4xar847HgHvPjiquc3zc1v68S9tAQ5DARY0Tp7jkDh97NHOyDGY21D3tYyNyBdMbo/kQM2Ljy/+hlchAY863orzuO2FdvgPf4JHglmKlm3v1l/gzEZJlEEXUAaakLdEbzVCQARao85676Zi/vAJBPanFvZ1LlxGOL7LN5xI+yvi4uEf5mKcsIpCz0QQJLOmxFxxIwRauod4tcxqgdW5v/B7wu+wEieRM/g3ox2RIGmnDBjzlCHaGG3IM72ATH3zPIZr0b7ivbhumXeeg3tn4HEuGmJkemE81IiB6dE+tkXlBBDguMNCic5cDMW38OnfWgsOQ82LH6JfOQWR2Ea5Lsadk2U+/qg5iRAInuOOY5DjjYHf2e94BYWalayF9qROsqwCpEt7OZMfcJyhnVl4So6H7NysfUM2km1DfSE8c1Ej6koQs3nXPXQTBKpPkfEFA3KUG9c5FUFABFqRjphMM0BuLvFBCoM6cxEkQiJ1ac9VmUNOEEWj8wmK9qsUwd2ZWzHa3EBsWmRNYZookCVtPyknMBCWS56MMcrJDZMYs2VwcmU1DLsXMjUaJOIWMr14hhcEqA8RuN4DhTvJcQLEiycMU/wCOM8jF12yxauMUgSJGO1OXsmpaBgoSx/LPkdYPM8PCy/vxc9/AZvn31nz8seu5iT+Q/dj/+Lofw4BXgPkmSKAQbz90mLYGj3oO2Ilu/ajIE4u7jj+MHYCkifGEvPLptz7zPy1GGMNhOoLGXFo6Wwe9QjH+TgjAQ5Z8vHG/aF0LmpzrHFbCxaXHZL9Dgl+yDE8ZBN0+MkiIAI9WXwrU7urR10KgNMQSHPx6sfWho3GHYb4ML9PIRkiOwWzVFCaixBGL0IEIL56268Q3gwSAVbfngx733WK1TcmNqrOuBrnJIdJLeTewLPnfC9qEzayNl58p6RKcu2reIedgPJJjVIGt+wkmNQiZnRBtCI5Fe3rnDH9gb6EFMboQm1InVTdNiCFBtAwuFp/6KsURAbi4aKMuTq70G4w/Ri8q3svHyHBwBN8Rjxk2LlTjE0n2JyofRGHa7rU6QQKEvXoQsu+d5iZXVqQGBlzlwFEwiU4NmEsBoy7y0UbyzBjjuRN6ZPORUi+sIix7eSOZPERzBrMMCQ1rqNay39EoLXsthEajQc5QKaJNsLyrXwGFRomNEp/TlgjVNefTDAx0abTWbtvnSd3rfPisRORO+dARUtSClqYpIzqsMMKf8t/z9Wo3DcXQZJgTsZOeM92miB+SKTLH30BtTOcgRgBBtFr+lGIDqv6oO+LCZDh/4BDehnpqUCiHcYzRTornyaLefqg8/VdOQQ45tCfITKbLHz8Uzv1n/8XJyaq0d0eXq6WN0f1CQxfUeJEerHeC+ztfYqxh8Du8UsQJ3J3JiDTzOaOY96cDeIj9+Ef9O3gPuCsvxuWIqOLL9ywlSZk4gT4B7SvfY4oQ59hAYDxRhItSjGGir+PevdjcUUs2iiJLn7yC0ihXdsD+Xef3kajQLJUI6vUDgERaO26bMgG5zOITwwgnTYcaFoXrmbqUD60w0wEvHQxiWEC4Eq68+yhdeGI4xInsqEw2g8lyZST1CgkNHCOq30pHPMeAkgZCAy/g9+jjVeIzwuJhrkgz1AFnU8+w94LqmUicDoVpbCBMptLYTfzCRa/q4yOAFPghdgi5SnIPvppRp50EGNxySz7WOpfOOT4Yg+5OqNNjDMsdnrPQJ7PkQ1lfc3zxCY7yOMJyY59eGD9g2Mrfy68KUUDoF2NQ5gbOtsWQCORQJsSI55yDwvD1gWMNWhsuG/Vt9twexTHW+n7wLF8IGDXJzG39jYzbc3WC0jKW6gGiw22Y6CNRbP0Xl0ERKDV7ZuxtiyE6rPNlFCIMETS4F68kQpVYZDWIqhmKbHtPkC0Faz6XY3mThGYU/rr/jHMBpig4P4BBxDYKeH0033+2CJIpW3auTBhLn6QkSDTTvkqflgSpVQA1XAL0YlaZ+5hIoOdis5FzKghqWCkIVKcFCCwQBOq0DYCwreufurk4SQyTB+RdPgCKXLBlkDD0UXg9t6jH6z77JHFzMmJrDuel5M2ePegzcdMfxzmLRogzaKNxTvHGA8PoPlIOhjjkA6ZqD18DXMEUpb1kJGIUZJSvJrMSsSAD4WneNn74fUxpgJEKWrSgY8SM9rffXLLHe36ZoyiUXqvPAIjzqKVvy81cBABzA0tREVpI/1S+8JleAZSFcUJ44gZZfB8fuYkhuM5WXVf46FHwOzOM+RDfPHUPQv9cKzKaefEkeMrnHC8Nl4fk2iX9lZKCXBWAuklsIO5MxQkHY+eNIxUzfunGpt79k6dd69kbrHpRcwnCg/hsd7I+CCpdE3FkKLqFvsfXeMB8mwis48XYj7MuMtvNmGuVxBn98H31nv4A1S3DyF1YhEFBzVX43PLSMD+pDZiYMzk5x/35l1d/MMmkowjEDMkxWQLjkkY8zHGPu2qLbzaCDzCvKSUKItn47hroNbsEJgeGki/1wQuLdxX9Br5RLvwyKW5VKVWCIhAa9VdIzQWk0LYhEMOUpEtQAINaTuMCr3oEPVx0qPNBs4Zu49u2t4jSAFw2ghbmKzgxTiRQjLlJIem+HYAqvCgPvaC31qcPAdDEJZpFCVqFAZXWET2mRgqQmbSYP0qoyCQ2fNo7yNpNpA308kTHq5ulxyWPF3jAc3Dg++s8/0frHP3G6ht77umwInS83UWtklnwFEavf8cVPNmXzBSZMNbnBqX+O5riyEBt/EMBJCIgxtfWIhAJE6i+2s4/C/eP/cdt7GlB1IoCbn78Hu8g6xJom4PPfx0/VItBESg1eqP8bUmX+zSA5L2m9a5i76/cugLuK0HkyKIpfvsMVS239keYnvGIJkAThcZow1d6/udkJMoK2EQhO3bXznxLX30Y1u48jHm1REInZlbEL+0hQVGD+q5GBKuwq6N1k1ZkPhTtvDxf0Bigs9gb+ceX6jEhynUksBRKOGC7fvfWufmnxAO765vUcnUtFgsjYkvyzTLCRXkRgclSsFpB1tmNl9iP+vPrXXpQ9hFeY94TsosENzTHI51MKW0aFZBVCbuC6UXsauiXYou0yodM20ERKDT7oETuz71QZDYoJ5cgN2T+z3DFrZ/uI1oiIviYadjRm/9qe3A7tQBidIWRUeNN6v0Ieob16HF5In2ce9fZ42b4PECebYvwDBaeEyWmdDYJoq2lJrgbUkHpZj3/PoF5mh8X1xrXG2f1Xq4aMOez4CRpVaBI/JkNkEQvu2o9LgD2NRodBCIg6aCe1/b3ne/t97j204yHnxgGgTjYwDOcTAZJNjf3OEWFAwMDi8GXWi1PkG7Seo4sNSYw8jCoi3kog3bemJs/Up3sRVsB9tuVGqDgAi0Nl01bEPxMNMOBdVkC1tXKF257bPUwz1wLToMwU7TefrA9rBdwMmTEYQ4ofg/A8dO6SO3JsR0anpyD00KrYlA5WFIJw8M79ITWtZ4l0KBV8QtEnDwcBvplO6rdpeFBMZFDNPINbHnsYWXh+qjs02uKi97Twk8bbsPvrG9H/6URe7xRRu2RDmRla3lBI4DYXpqMmhgmK6MicApYYcIhE9nNH/G2MYyzxluJlg8lREocofGWLDFkGyHxeoE7lJVlkQAs6zKzCHgkgA2sCPiDsmkiegqTB2VpYnijyULJkRGFerC1th5in12WCVzn6Q7akxDCjio2ZisKHWyXb2N51Av34OUjPRR2IbgE1HZGZcTHl7MEtKCXauJaDQK7XcQ4Id/597XcKoJz2LrytWPsf/znNv6hmI9qkHh/drDvuLura+sc+crbCfh9iKSJ/po2uOO5EizBgqzq3QhGXcgJffgF8DwlVkpw/LZeAsWkEoQKlz37IX5IMAz62WIxzS/qN6mgIAIdAqgn/QlOZFRrdQ4BRsLyIAxZYeaxJx08ARDTdXFPrjdh7eclODjj/mrzORw0nd4QP1sFgiQG+m3b8Fe9vKxb1YvJrsDzjj4K6gfPdUWJArunc0WHaz74MP17X4EGMfYpU9sXcnIgERBc8IxhWOOL0iq3NvZuf81Xt9ZBKcdkqaPu2mT5+AtsLkIEJIwiAjGW+fb35lxDzQXYl44II8oxXHMiwqJvcHoRzCzNJjSjRG5ymB2RPX6aTIIiEAng/Nkr8JN2XAeasJVvnUZ+z6LzetlWuETGQ6EjZPk2cFetQjqqsxxo0wF0zkms8fCyYOSKPbudbgBfhMeuvSm9QVB2XZBCuXiAw4e7fOwG8OGLBtoCezAG7TpNaCSZKhI7jemLdTBK8jiyGrISLAx0tP79pfWuwfyhOmg0oXtBeHTg7b77L7tfP97i/HOZArDLty4jaoFr+UQzyxNL74vtdI3r8YRARHojI4DTmYtksAZ7vsECbCUmsh4HP6HOqqH1X/v1Ro2liNeZ01KEQiBTk897FGNtzfyyewYiaC4Py4+4MTSgCduC0EAAscOE2VZ7Ip65uyd+IR0HmKQAKgiPdCAZ1oBEMdhxwUOJS6Ms/gVFm0Pb1oPQTpSeH5XVuOR92+Ae0uxaIvgQctUZV1ELUrQ7vIlk1hd6wGHqybU3yEzEDkm5WvRkdNBQAQ6HdxP9qpUeWHid+cGRkwpJrKyV2XUF9ihOgyRRu9A2j1rM1IwoWHfHu2hXahxqdJ1Kagkf/pkT+/IRai/qVJjvF2VoxHItZbhMpyHEFs4dGca4FaWBKiaxZhjOEgPlIDwkIWzGqXSShe2jwvO3Q0EeLhl8RoIFAEeGOu2VCF2XGDAR4HYMThDgJypfQk2x7ZUXTpo4ghUfHROHI+ZuKDbP+Gc0OC2FWzNsLJ2S0543LaC6C7MqBLDEzUGkaYxFEr8rQaF7eSL+1SpyuUGeFepHScFDd4bVGgNeC8z+IS1c2lg8Hd9PhABBo1vYAsQvXC9lJ38YQdk1hQGKejc+RLjjk5DDOpfgzHHJuKVwl8g5gIA5B9j4eYB7QnCsc+NMyjU3VjwrpyD3wIywGBPKb17VaqPgAi0+n1UvoV8FrEi5uTPMGrBIlS3IMRjVWjFFfiwYyKg7bADWw6DCfgcVsNRQlVuzIUAA4JjYjOmtWI5bkIj0dLLEhMaHTqYm7TyUlB2Z9P7F8MmhJaDEig9b0PYQTHoBl7HNA37J7m/0uPC3v8GeT2hdqdKl+RUp4I2Ry8eZZGFXjzJ76HETRAqbvVB3tCAOXDhAW6tYodhCQesOmE0Y22t4dQ4Yz0w1tvJHjZ63TaQM5OJqrOJrORFQC7MChFjC0gX6ltmKGGphSTw9i1iUqJUEG1REgWBQqIZqjCmL52JFuGVCzJ1W5w8Iw+GEBK7Lzhg/+ReyJBbpgr+PPiMN99yQQNHLwYniOE05OnIojxqUdXVt2/uAp+yqZTxeXsIcs+MMeVTBRKsBLZPOq9BDc6gJ3AC9IUbf1KpLAIi0Mp2zegNC7GSbS6t4CGEF+SQD2AKD8JkbwsTADKsFHacEovo0Vt7Qmdi8k0xEccIvUbbGoPEezlOAi2aQ9xQB6WpEFszmFlE5S0E8rHF/bIBtvxQdctXgPFXrmBgsZ+wYIvhrBYhkIDb2/3kmk1NfEbwourW061twXTA54cajTJjDselyInLxQdtyFTpssgb12Go7D81G6WVxbESDUuZhBOlgc3YnPgZsNoZtKz9D44cTEsWMaQYbZ9DRo/xi1fkH9pBGVc0QgYN5vn0jB1lVxOOV2b3pT2K0ZwojRb4VuQWK9CMXL0IaZ2LNndag/NVFlyd7Joz7GEt5XDFuQns1D2oPCmBuur2sOOr/j3uh4tOBvFIoIZ273WaUFiOJVGMN/gquC106TScAKnC5fQsFS7hq2oRgVa1Z0ZsF2jDJabGCib+YfZ/8nokT0qfeFF6q/XWDU7OINBkdxc2XaS9go1t6ALpqImFSGOBBAo1pVS4B0LI8IlBC3Z3eo9ScqI9r1RBJ+HcmIHUmRuT3qusyyMOlaqgcgcxYlJKlTSlagZWKDQfpVoKAqUHOAN44N0d4mpnCC51ozNzkAh0VrrSF/y5DZQPIZ1fyk5k+eqYiaTjLThwMMciCsm4zsUlRkjRVEsz+P3QBMjJnOpJOhVpIntnKGTqRWDD/JZYsDGFGcm0tNOa10ib+yukpUO+TUT1yUp9pyXXfGCskTxj+BEkHt6PCwWu6I4o/qhlBMpoTg06ZHn4TUii9X4Mj7jp+v9U35Faf+xP7A58FesEyoev/NPnRNPbc49IlwJOrIWTrBjbcugYhcWBedJiLDKOm8zYPMLmKjWQAh066Cijsh+BYmhxkUE1N7dMkUCHKaiDZgPuO2aSdC/HcM0w1U/8WNx+AE0FMxjFbgdljk/knC2wOrRBOIDnEktI8VSH0wSjeMyHAlaJH4Yc7ZVosxpxDAK01xkn/aESXcOJAVlWXHUL1ecsOC/0JWhMYK5Wc6eOEjalYtEBonV7MicybrUoceoxXTOTP1PqDOH57ZM/ya80UBmr0G7IEH42ipq9cohinGD8JFyI0hSCxQHzmh7LoA4FwMOzyxCIbn5hSj7fw62BV7luzhskAq1qz7xHu6hydJvd0NIASRRkUxBIfcIPHYsWvTs9DRUn9zISqNcIlRrDqlEVHkgCPQpkV90Oq+omaUA7QLshSabq8ZaPuv99vyHwCANDpF2EwOSiLSok0KNEa4CBcUmpk6pbejL7uJuhZ3AfRjPyhwh0Rjpy/21wZvIl7f6vj/mLqk5/YQIoTzLHVFqVn500OYEdNYm929hsLTE8lu/WNNvf+LgpDVPRDzgB2o4gpX2aez9nQ9KC/OneuPEuVNMMg1ksSI8aejyGYxQe9AHTDzLHaBETd7aHTq3vTgRa6+4bU+P75IKVMx/k4oEfU/WqZh4QIHuSAPletuDYGOckw5xTtu7pHOeeszQZwAaa7LyyxO3uJVS43lwQKKVQ2kHdBIOtUzDDzII5ZTq9cfJXFYGePMbVv4ITJicxPLwkU66URaLeb762qH4PTrWFWHb5wgvpYrPC8VOq8ECOt9InlKp16gfhUXJTSG77JD7DFWKCqXnWcBkOhFocLQKtRTcN2Ug+wEOewsPddur202JYFDPiCJXNyCmZRI6b0YLi8B4FNr5NiIE3Sg28gYMgYbn91O31xbg7/FK1+IX8hzCadAQKmDDbbcMcQyVbz7HGAAx4p0dv3xmu5Ok6bHIIMNyFyowh4JO+P4BDEiAcZTJPyhmTCNi/mKCzibpEZ3Pl75MYjnXnFqrghsSyxGVm4xBO9Jjk6TRDBzT8V270gCRImlBXplRZ0kmr3ImVhs2fPdxL2Ma2HiQj8MASvjgoc3PAhE5u8Eb2kIY9jLsZUm9XuuNGbNyMLPlGvPsZPc2lgcL7r7QaiLYXvjAkSKSll8s1ABEYMLoLpQKftEmOxxXOd5jM4t1thGTj3lg4u+hp2Y+acwJAgc2P2zY8XCIJYFigBkl0/xVq+Zcv1AYk0H5uz6PuJl+0cTtP0sm2vzAUpTQfR4E2/d80JUy/D8beAqaGSpCJhB6OwxRmcQkYzBrvsxP3ldGEoEbjtoAiNVkZAnXg4E9JLLE/VhPZuyOpWGQFwDNhthuS57AFZEtv05Bxm4vIWSXWN8NeZqLHcyGKoBIuhfK+sEDI7JnH3BjHJZM5cMHW2wWc3I89AqYTvdn5vpgIdJb6P1/5O4EyhBhd6MuUnFAopTUYyBqhxIaWIspcZ9LHAA8G5aYtiosCY4Du0hI5GgtCYEq0tCdJ4PCuS6BlhOoWEnrCCZ9j6RieeLsuBg4IlqDyLJ3F5e0aKvQ3TCd0xAuZ0IH5ZHFv5QKaZCpe4siE9glf1CK5ClfTdIV6eF9T1DP74KjxH7mJhRYoVwPtYRXLQNb8vixpYAJjEukGgoKHiLxTaxLlJE7bGu6pucLsFqOEmQM5QBpgPFMuSmqNx0kObZImbaCc8EEAQ0nrGJ/hEpJInzmPsXfmJFs5mbq56MK4Yyi+xlnk9QSRlnr++IySLEmgCMCQbCObCxIheEak/NmezA3oKsMgIAIdBq06HMtnEPaomLE4PRPEEE8f7DYknHAZBMocmAXxkoxqVigJMZILybN19iK4lBlCeCPlbybFZBgxqwbsoG5XrhkGE2susE4Zug5h6/hePiQf+gIYN5CIu3X+qifj9jbjuyG6aWK3WeZCXMAGDK7P5OLnL+ep3XhmmXFHb2baQPHsIsB+usdxN0IWoTIN1TFjQUAEOhYYK1IJuZILWUhMDM5dWoVbNB/PeIjVcxNqp8bKmUxq899qaIfBJMz4tU1IAi1KAp5fEeCUmce4cMjV4TEnMaSnYri5/oKiwGvu37Ppg9jECBjAZNJ8GUk0U30cjRD7AirPcGXVmjmBMpyfq4HraPvD/dBRrQE/ggYSizOjCmPbeqGUfmzhQgQE6s8uiRPPHZ9plcoiIAKtbNcM3zCsff2kBBM+J35PpVRIkWWqc9JpuCqtde5Stnrmc1/m2S9T/4SPodMQJ7Hm6kVMZFDhli2c7LAlI4FHZOoq3NxBRpPZfgQLPLj/kxlVkAovRW5Pqr3L8KcPLGoKkHM1hJagcfocFjrMQMKKazY1+XMCaXoJ5Ll6yaVpOuWV8sAlqliwMRxiQhyRjPuN5FkzHPaPkJn/S70za10MEmRaqGSX6aHgSDRMIXFA1Un1U5sSARMk88Gu4TKY6ltKAk3EFeXEPJQkQBwoUSGbRmb/BKY1xGCYrn+vY33MkUCRA3PzNcbd9hDVAWs6eWGh0zhzAXbD89AcgHhYSEq1KdTShLiHi9a8/IEvCNxpje0vcx90eIPEGVDjARwZjJ6l8HT2P/RP5RAQgVauS96jQblEkODhowQacyJzG0qZJxjXJXFAhUtHova5y7AfnoEtlNFUClHjPdo2qVPzW23Ajts8c84XAwzQbXSKKlPcmQMqSSxCIkxkdI5xVVqZc+f1GBIo7O0Rk0hvrfvi7Y0IeszY8TGHrSzIJ9qEzbB19VPfSkUyylS5NQIVe6ib565Y+9qn0HpAg8OxxPs7lkEzjFJkbYmhvo2QR5Tbp6TCrX7fl5xVqn8jauEbBKj+cQLYhQSFV5aP8M3vR37iQw81GlWf7fNXrHkaEkFzEeqlkiR8ZOUn/COaWGyjoN1z4dI1SKCwQw3jGcr7R4BzSvFMiMytGSrHIEB7MWx9lNijzRdwusKYI47kBb6OKxiv3DfZuHTDFr/4pWsNqPmgg1FtCiVIJMJuXrpu7aufWEizAUupe+DAxZjDOI134EC0+QoaEHg1+yOnKToDspr/qneq2S/v1ypOPpAIYkgE0fozSFG5KpeTWsnCyaANVRRJlHvZUmbNqAGH0tGHW1ZIoG1IA40lECjDGpYtkCKYN5RSwN6zh5lXKVVrQQ1uvuw9nsBxxMediDD5p7sbJYkjbwhJBgTMxVr72meQ4i67+t3NBxmLnECLx1OlLyy59xP7pxc+/AnIExL0qfO4H3p9lyx8Lum3wMXH5jPHkWOw/NNa8jo6bOwIiEDHDmk1KkwirGahguy9egoChRNMWfIsJqygaa3TF52EWlSFckM4vQKryiP5Sp/BINrnr6HdcOSgFyQWAkMV3D/tniTQ6PXzzBGLFXBRonIEAsAHNvcU2y+SzZeW7sAbl9lIfLwcQwUcc8QXW6fCVahxP/gRpNEPsqAe/K3CY44LhwBjrrkK1e2nP7fmlQ+zQCRHILXvJz6XeBGv+OUTi9fXMq0RHbMI2zHQ7atLf0wcAc0KE4f85C9IKSxNum7D6+CBjEmgnIWGIVGGI1tYthZsOQsXrmeerCBVLxWd0Nxx6PRZW7zxubUgxQSL3MQ+JN7cRoCtGBE8IWNIUtyioVIOgTTuQAUJ7F4/s+jFE3fE8jPLjjsPQLBiC5/8zBY+/olLoln84nLXn/hRfKTg8ETnp/bVj23ho7+BB+5VV0eXU92yxRmBct9n7/lDi17lGqNSqt+J37Eu+BYCysbyFiAz8SdJw+0p25BAX7ozUYN2wGHUSgSC+yhhQ2xfvQFhIvdKhZODR0epElCYbIIQXrfYe7dw8bot3YAEg8+Y3YZT3+KeUpLn5jrU3wjoHUG60BNSrqcx5qjYzCKbAABAAElEQVTOTOi89uKp9R7f8uhCdEJz6fK4RRcJI0UlUOW2Pvqpx3JOKJVxIQPHpL4dn2O7CgX3g12b8B7GPuMrHzl5ti5/ZAECd7jEXJoAURG1RSDOCCaDeONZtoWFeFXlXquAd0XbIAm0oh0zlmbhIU6jPetRFQlScI/cIjdhmQtQfQYptA311BJsO4vXPvb4njw1jfmEV6CgGUkPm/GXV504Vz77BexnmMQgzbjEzXsoUyglAZseVLfdl2vwKIUjh4czLHOyjikQ4L7ZCFqP7pPb2NO4m/VBafV33ldwKGpdAil9/guXRkPs4c2cwypiQmAzfdGGoCPwEVj40d/ZApyfmIghI88SY66QyuGrkGysW+/FY4ugwk22oPpmKY1Zdrj+nQ4CWl9PB/eTvyoeQH/OsZ+xi5VtA/alNgNcc3P3MIUPOs6lKneRUiy2F3RQN22E9PZl/tCprJS5OIDEwuu3L1y2RXg+Llz9KA+akDtwlCVP4sFjcX+UPnuv4cyxswX+lQgw3FCB6QAYJpAYY0pTIAXGuQ0plRHLIfojpDYBDkWMpsWQdt3Hd3JJNNsfOQ2CKTy83VENZMktN/QabsN5KISfgGs8/B7LEijwwoKjt3bHes/ug0jxTBUJIDT0hhl6UztWBDo16E/4wngA6ThKZ6Luy6dQaSJcGjZ5U+U0dAFhBgiJR/Vopkpj5SBROIvgCkNX994ncH6CbjVsZEG7F699Dgn5Y5A8Yo8yaDxL2cm6mNgx8dNruQdpgPs/KT3Vav9rdtfT/RdjAgzgkYhoB+1Sjcu9xMzDin25fTXsca3E4girPQQjgCe1R4SCFzlS0vWe3oOXKhyUoFWZaMn5EMs1jC+kXmOAjgtXbenH/2Dtz/4WUug1Vz1nmVNKkGfReGSxoZ299+i2RbB/Jnv0XsYilTiq1AIBEWgtumnERnIVy4cUmR0oVdGrtAEiJBmWLgURQdILkC2jDe9ISn0MubaHySQG4SQxJjQntdK1jn4gJ1eSJyTpJiIMtTGRLX7wqZNngDBqXoo2l7qKg+SB0LvPH2Wet9gDShUdZsVSNeigQQSybUDxDhYj97/L7KDY1sHUXmDQwQMP/8z+o6kB9lM65Sx+hgUc7Pch+rf36Bbs+k+yKFveR6iGXXjiBXZ2eNuG3Gpz6UNrf/QTW/r8761x5QbIHs5qPuZKkicXbdj6ksKfIH5FdfcteOBi+wq0RSr1QkAEWq/+Gr61eKZTkChVk90Xj3wSakMl6zkKSz7vftGclEKExlvAhEHnogak2e2735ihbkai4XVOejKjsxADO7RWz9sinDeW4XDCMHCUWIZVE/p9cfJlMHQ4rHQe/eD2Yo9DOoytePheme0zOOawpWXvwbcgQATjIOHAK3qoUuzdJYle/tCWGJIRwQlIoulNZMmBVsXVnQWJDlX5kAdjLLiTGrxtucVm6QvaPP+Tq6fdTj7Ugg3XhoTJzDUxFrRdSNWUrJNt+Chw60rdYgAPCeWsHS4CnbUefft+MgHL1ZMMDEB7pqtyKa1RVVSoMN8+76i/GTUGE9riDWx+h62qA8mtAxVUD56EjEITQLWa1Y03MirbMELxTeokeU6mmMRCkGQbamRuq2GsXgaJD6EiHCrO7WA7SJKwOcUbL63z7IF11uFshUTGlNpl/xwEaojPRV8Dw3QXtsund6xxF/3EcXflk3y8oT/Lkg7rwzildqEFm2jIBAEYe3s3/+C2fcbfdSL1YcZ/BtSfRVuGaL5rHnzRiX9YHaNynTpnreuf28KNL2D3/MQXBCECJ1gz11CUvRe2g88b6ky5zxhjLnp405/NbLsUtSsD7R+m3Tp2KgiIQKcC+4QvimfW9+jhoe1hf17n7CNbBBG5KpcP9DCFkwXPYcqzFraOwEs3WIRqC5ICc2/2II0mUIEyGDZzG3Ji8G0vKcl64ELFZxLkYMklClcTIwhCgG0NzGrB6zA2b0agIE9IA/QQfq+Ce3HJkwuAJ3ew/xP7PhEBZmLq6PdqfPVPZt9TUuw++M5VuCFVuVy4ceFSduFWkBPNBuj/ALZQjrWUacNW7/p4TjZeIINJFoA9G2sk6MzJrEDpoEhSniDAxx+Oh+TniybUH2D7U4D0dyGyxDCzCs0W7RvYlwrybECSpg3UNTisvGhfcaGj3osFK8ZZvHbfuiBPSp8MQOHELfI8Cr1K/iYCrWS3jL9R9FhlkHnaQjuPbyOyEKQ5OndQnTtsKUgU6lRbalo7QMg8kBmDFzCgOCXRCFk5KI2mXaRVY4Qa7vHzwskKhX9y8iq+9r+5+uYqPIC0CRsn1XacxE6d9jBvLUgClHh9Ema7ORFTOh1mEsMV+gU2p4h4QDLvPHsEh6sibRnboTIOBBKOhyf3PKpQ6zwWbVDnBnRkAyFmA6DEVfrjDeSGcxuwhy6i/6OLH1gTUlwPZBSj/+IdREHyxRv6sQdnHF8MDa7Q8rGXq0l96BX/0DTABRvtnHins13z3FXs8YRzGsMLXriGxAQwFbQ47nDSsOPOF6poC57BCO3t3PsGCwtIn1RF07vdybUEFjqkUgiIQCvVHSfXmMyjFPkGoVbbw6q3CYegRnsZJhwMAdoPC5tT2SZwUiuIC+TpSYThBdvmlgM490RQi9J5KcF2kKiD4AuYJJjvkPbGlNIB7T35xEhpkyt+sinbGWDfX7gElR8cNppwPmkivVoL0kvAwPAsxbVR10iFkxmlI9qgQJ5dSOURJl+qB6VCGwnRA09iX1K9GmORQk/TDr3AKTk2PzRD9pWhio+1fMW1BG3EKYxfSIdMxM1XdB4kyu0zVOluIwADxjnTqjFBdYqEAHxlXrLZAg2DzCVNqv9d2gQh09Epe53xsddAvW0QaANEbdC2eGE7hn1WXNrG2YxytfncOnf+ap3bf8mIH8+GS8eSPocaDlU5WARalZ6YUDsSqFUN0Xb2nt4FcbZsCeTZWL7qD3efEIdtS0FoOC8AKS8gIsvCRXgnwg6WMKg9oxfhxRizMTfXe5JqRDbCpEZ1WcNX/KddPUd1sJMxJrQgBKFRyvRUZPmqf9i2vX28SwL4Ett7diEB7D78AdtWXrqtqy8Nv32O/h4ZAZKDB/N48cDSL/dcslvwxVvet06Mw1RPAuPii9GnYIOHl27jDMJNfvK3uA7GFPoyQiAMSnYxPscwKdAjmJKpx4TG9VxVCzs+xyr3qHKrTQOLNU+EjUVg4/QFD2Pp22+4wOT4G5Y0B2+J0ja3SYHgSZy73/0W6tvbsBG/xj1gXGvgDaJVq88i0Fp11/s3lk49bpuC3ajzmPYeaHExObhNkQ86bZBDT2oD7SrILp8UwjaiBEHtlWJ1TzJtUl1FaZT5DnktrLxDhhjkhMbPVCvjM/fb7ZtY3qdNRfNIxrg2I7/sQo1N1W0MaYXSqJyGCpDG/J5LVvQ6pbp8DwRCNWkbY43py7CiyiVDSpdDFI4HDt4mbJeGaSxA3toUhEgV7OJZSxAhKNnby6VQmBAgCWdaD1wDp5F8uTWmr7aFxiOAuYD2zYDbUqgRKSRH2hpGGX88nwTM8f76pXXvf2t73/wOKu377mBFJ7mMQIe4bx1aKQREoJXqjgk0Bs80ZiyXCg0h11g4NyzhYff4sVBpZRPHkBOa15RXxonDi89Urv6imqwBMvXCCw6u6AunEp7n5/L8oo7slPf6t2gPCNy380CFvXv/e6iZ4XwCqUXl5BEgWTDqThdbhUISFDQM3A4VMsBCob4chaQGm85+pioWXq4BpUpKqhhnNBlwseYjmv9wmPk/+JfX5vjDi6YElzb5HesqThilXQNjLsXCofv4pnXvfA3J8weP1ISBl117sP36XDsERKC167IxNRgPMO1Elj51Bg2xUl7EfrsQ9kuX/kaZNIqm9c/1GSibjHxCwcTEUkwu2V/Zv/1z8Cc/D/49eNwon70ueNxyuwrIs/PojvVePoYmENKwS8GjVKpzhkYAUXbiV7ABQnXu0h/GwcInP4djEEmUTkUs+ZjJ/jj+37xv+6dxbLUgXRo0GPyMF1zS8H5AVX4pkisv6/+8eR9c4B1w6pFf8bosMBNwm0334XfWufUlHIe+dbWy5/r0tmWH6d/6IiACrW/fvV/LuermhEZPWahT3cEHNS5QtUZnnUIqeL+rZGe/TYZv/z2OaxxWByQf2swSOGvswftx98H31sWeVQZ+8En1oIn1sLr0/egIOM4IIEDnrRcPbbe35+ES3d4Nm3l/X6WT2uiXGfvia9im9MkTz1ROnrvf/94dh2Is2rhgc0l32Hp1fCUREIFWslsm1ahMIvTtLXC62AGxJXD2WbwOt/1L1/Gwox2TJLtx3nYxkaVwYoLzxi5W/3tr2PKAGK198hzn9VRXKQTc1gwSZXYgeqManHsWf/6PtvDpLyxktCISratc35dJSzVn/AfBg9yDc9Dmee8r2/nq1/BAvgNJFNl9KNVqwTZ+zKdYowh0iuBP/dLFw4wJix6yJBdOXpRI2/CWbWObgKdoom2IpQ5kWthT4TSSIJdkDyrD7vPH7nVMj8yUXsCwAcPoxTtSmTQCTpAYStAAUL3ZgUaAQTm43aR948dZYHYmQueYqwWR4oZ4T1RBs80MksCoVnQYuvOl9R4izi0WcO45XDxvk8Zc1zsxBESgJwZtzSomiTK1EgiHQa0j2kc/gNcspAIGM6BdqRbLZzqOUE2I2KIR9ncyfGFnjZvsEWXIAyVAshmnerpm3VyJ5jqJZgu1GHlXO3e/9di53KO88EnXuP/Sg2W8r0Pbid7sABtyYZnAm7iDzEdP7lj39ldwGPqrZ6Ph/dFhKCtatJ1ol0yhchHoFECv3CWLuQAkGnez/ZpJB7ZRTAwLCIzQPocN60iH5tlOqiiNFupabheACrq3Ca/H9ScIkPDUQ7314DxEKcHVh8W9Vq4T5qxB+SKGYyx+vWZ73MPJgBvov9YHn1sLDm3cl5mFa6SjTwVVuhx3lJKx8GQqPNp2O3fhaYtXhH3WzJnLxVpArYjKTCIgAp3Jbh3xpkgyro/KtrnsUgUF2+jiFWTDYBBtBHFnHFJXVRWkNeKlxnoaJzFuV4BDVAft3b37lXVAngkCRtBpRXvtxor2WCsr9t+mCHbQubdlXTh6tRGAnrk2Fz/7RRYFiFfkeHPCqgqRoh0kdew15QKAofl2//pvCJ6PAAkgU5pBPKnCWNFSZVVDQARatR6pSnt8foB0gMlg7zFUorAfNhF8oAVptHXuirXOnMfmUah26RgxaemgIG9eFxNVD/tZu+uQNhGDt4fwfPEmY6IyfCDCBuK/bFFQFWDVjgMRQFcydm2KRU8Pe0UNmpAI6ndmQWlfw+LtHJzaVvIYusX2o0mPO2pfOPZoJkCIyu5zpCJjMuzHUNsys8qLx76I47hTmQ8ERKDz0c/D36VLo6AfRIohiSa7mNCwIZzB4hnjNiaJnr2YBV9g1KCC1Ia/0vBnOHFijx2dhECeHdg6eyRQRBjK9rZyAgOxo4g8HYbq/4Px5o5dtMXDuajHsI9bmxYxRR6c2xjUvcEwezAlhIyjy/jNk7Rlc3wzli1MGvHGc4uQwaf3GPljH2NPMZzUEiza+Ky4Spe3Msm28XoqU0FABDoV2GtyUU4CkAwYs5Yh15IIe/fwOcLqu/XqJXJyXrGlT37q+RnfbISfxL2B2GEr62IS27nzrfXgqJFAfZvAw9bDtTGqDCc8n5Qn0R5dYywI5P3FPoxBVEyJRzV8jIVR99Eda1265sHdmyBTZkcxpLmbiFqXYwnSZ7LHzDKQNu9/Zz28IizaIoy9FMnYPTQl7Z0ad2MZCnWpRARal56aVjsxd2R2KqivUDixMYdmhH1uERyN2ldveKqqvl10Emo1BEcgWXbXn9nOve8wuWFzuk9cmMCYzFul1ggUNmsP8LGJgPAIuRg8biB7yRWPJgXa9IhZDNnnBDqJu8U2lZQaD9hnO7f+5EHhuX86QOxnzyakcTeJXqjcNeQeVrkuqXaDCqJyFSkkBbf30CY00QKHodz2GjTI8BjGvv9zoo3QxU4aAXRtEaOW48zD4q0hifaTHzKpr9gewsXTSRdkFophV2d+Uy4iOeboXZstLk/64qq/qgiIQKvaM3Vpl5sa6QHC14SKXyqzcVJNi/wyE7qwLjMVBJwfEQYwwoJtbxckBrUuNBAB/p6IAxu1KlywIfiD7yVGjFuOuow8NYVOZUxU5KLq/Yp0RH2bIfKqb9/Vp+WedJrblUBeKRyMrId3ktqkim+VAoE7aU9a4zKpm9R1hkVABDosYjq+OghMQHNXnZtVS7LuBmnGWLSR0CaqeRi4ptaMGow5AiJQDQUhIARqh8C0tidN67q166A5abAIdE46WrcpBISAEBAC40VABDpePFWbEBACQkAIzAkCItA56WjdphAQAkJACIwXARHoePFUbUJACAgBITAnCIhA56SjdZtCQAgIASEwXgREoOPFU7UJASEgBITAnCAgAp2TjtZtCgEhIASEwHgREIGOF0/VJgSEgBAQAnOCgAh0TjpatykEhIAQEALjRUAEOl48VZsQEAJCQAjMCQIi0DnpaN2mEBACQkAIjBcBEeh48VRtQkAICAEhMCcIiEDnpKN1m0JACAgBITBeBESg48VTtQkBISAEhMCcICACnZOO1m0KASEgBITAeBEQgY4XT9UmBISAEBACc4KACHROOlq3KQSEgBAQAuNFQAQ6XjxVmxAQAkJACMwJAiLQOelo3aYQEAJCQAiMFwER6HjxVG1CQAicJAJBw6zRNAsCC07yOqpbCJRAACNRRQgIASFQYQRSszTFP2DMoNm0sNW2FO8WaP1f4V6bi6ZpBM5FN+smhUCNESBxkj/DlgULKxaunAaJLkAShTRKVsVvKkJgGghIAp0G6rqmEBAChyNQECJ1tJAyg7BpQatljTOr1jp/xZqrVyxcXDELSaAqQmB6CIhAp4e9riwEhECBQEGaaWJpnP8BW2fYbluwtGytC1etdfkTa13/zFrXPrFw6XQugbKC4uSiMr0LgckgIAKdDM66ihAQAoMIkPNIlrRtogSUJqGSDZqL1liGinbprDVW8DqF15lz1li9jNcVa5w9b+Gpc5kjkZ+pf4TA9BAQgU4Pe11ZCMwPAs6TCe4Xbheums1IMwhaZpAyw/Yi7JvLFi6vWPMciPLcVWuevWiN0+eteWrVguUz+H3JrAmJ1Mm2cN+Q9Dk/g6h6dyoCrV6fqEVCYHYRcJsmJE2oZ4MFSJuQJsPTkDBPr2bS5sqqhecu47vzLoGGi6csaIM4W5iq6HVLiRWSq7/PLkq6s5ogIAKtSUepmUKgVghQMKSkyULSpHoWzkAGSTOEJBnACYiq2fblD6xxAS9KnWcgbS6v+jHWKCRMr8AsofTKl4oQqA4CItDq9IVaIgTqjQBtmsW2khhkR21to+XqWdotW+evWeM8VLOQMBurVM9C+lxc9q0plDKDJramUNIMSZ7cnkIWpsTJdxUhUD0ERKDV6xO1SAhUH4Gc0wonIDYYwYGwswRTCiRMql7DxdNwCDoDdewZa1K6hCNQCEeg5tkLFoBQg6WVTEh1SRX/sAKWPnH6H/6V/hECVURABFrFXlGbhEDVEXCu4x5NhNSjxEibJoIbcHuJe81iv2YLjkCts5csgD3Tgx9QyvTXItS0DIQAB6I0zgizT5qSNqve9WrfGwREoG+w0CchIASOQoDclguJDGIQgARd0uSWE243YYQgOAOFZy6APC9nAQ9OX7Rg5ZR7z1pCsswdgPgedY66mn4TApVHQARa+S5SA4XAlBEohEJ6wVLi5FYSOAM1SJQXr1vryqcIbvApHIEuYhsKVLaQRGkL9e0mlE4pXUbd7CZkz5xyZ+ry40RABDpONFWXEKg7AvB2Td1xhzdCr1eoaRG8PWRQA9gufW/m6iVIm9h6gv2ZISVPqmhPX3CHIMOx8BxC7NpcNcu6WEScGQ76d6YQEIHOVHfqZoTAEAg4t1Glmp9TbDdpwD7Zzr1n2wxuALsmgho0L8ABCFtOmhev4TsEN6A9k3ZMqnObiCTk3rOoLI3yOvmZdRcXGKJtOlQI1AABEWgNOklNFAInhwBUrLRrOnki9iy2lYQMnQfnH243aZ7BdhNGAlqBapZSKF5ZVCA4AjEiEAv3aFLC9BelVhUhMB8IiEDno591l0IgFwRzggvgNcucmnQEajG4AYhzCVtPQJSti9ireRHBDS596Hs3A0ignsSaGBZOQCRND24gYIXA/CIgAp3fvtedzwMCufbU92siuEGxbzNcgJPPqTPWBlG2rnxkzcsfWvP89UzCpGoWjkD0srUmVLTc29kvhRuu1LJ9SPRhbhEYfDLmFgTduBCYGQRck8p/KCHCFulOQNyfCa9ZOP6EjDULT9kmyNPj0MJzlmH03DkIvzMIAj1t99ku90maIs6ZGSu6kfdGQAT63hCqAiEwRQSczwq7I+2ZRXAD2Cf5mbFn6QQEu2bz4g3fdtJEgAPaOZn9xH+ntEnvWUqbhV2THris2+sXaXqUJOCpIgQGERCBDqKhz0KgTggMkCdVs5zfQ2Q4oZOPRwNazrKchHACapzh6zICHFzC1pPzZkgbBuNnJqkWdk2yZUypVeVdBNzT6t2v9c1cIyACnevu183XCoEBwgT7ubQYhJAcGbCdey9BnpQsW9hmwsAGbQQ4aCJ4O1W2zKPJU9zlljFn3QlIkYCO7n/gRN7kP9yi4xKof3H0afp1bhAQgc5NV+tGa4sAJMQ0wcQN0ksZoADvwSJzaZ7FVpNLWZYTpgNDMAPm1eSWEw/ivoQk1EvLGXk6E4CBSZwe1MDZuLaQnHjDXZzPFimWp2EzLFBSfJUyJKGKEAACIlANAyFQJQRcnUrTIwgu57gAtskGPWK51QQ2zQDbTkiUzVVEBmJ6sAvX8H7NM5zQCchzb5IAKGkW0qbfY1GnyHNflxc4cZHBzyxRz2xvx9LuriXdPaw5Eus9+N6iV2v+t3eOY5wdrn/nEwER6Hz2u+66qgjkk3JAfavP5w0PYMAUYI2zCGxwHjZMBjdAerDG8ln8hgDuSB3GBNWe4YTSUgCCLCRNlzYLJ6Oq3vSU2+UBILio4AIjwy7d3rR447n1Xj6xeP2pxduvLVp7YNGLx06s7uWcc+2UW6/LTxEBEegUwdel5xwBztmFtys/gjwpXZIMGRGowfcFvM4ilyaTUDNF2OpVbDu5DEchZDjxuLOuU8wmfkqvcR60nfWpvItAIWG6Shs/E7Nex9K9XYs7206O8e6OJZsvrQfijF48sug5iPP1MxyzA3xz9a3I811s5/AbEegcdrpuuRoIkD8LSZPkGTba1liFdMngBpex5YSRgOAQlIXOA5G6IxC2pzDuLCVVl5zyCd0lzWrcV/VacQjbgTzTXs/i188tenbfek/vu5TZW39i6faGJZ1dpCuFo1UUZXZPSvWHVFW9e1aLJoGACHQSKOsa840ANYOF40kR3IB2TTr7YEtJ43S+3YTxZpEijIHbmSqsiSwndAhiVKA3+zNZ2cBrvpE9/O65wHDPWS42wHpcrYAMqZpNNl9YvLluydYri7egmsXfEUg03njhkmeytYl4+JDk0VdMy8YSuJ3UP+ofIdBHQATah0IfhMAYEOBEDbVsf+LlBIyJnNKjx55FWLygCSegpZUsAhAkzOa5a66WpWMQ7ZnG4ActBjXA48l4tayjL2Hm5DmGps5OFcDHeS5/Zx9QNdsFCcIZKKUECUJMdzctWl9ztWzv5WNL1kGaW+sWQ32bwFmICb4z4oRUz/O9Ou9QMujswKU7GRsCItCxQamKhMAbBAKKPLRpYo9mAM9Yhs1j3sxC2vRcmr7tBN8x2wn2avI4a+GR7KtnnQmyyfxN1fp0FAKEjJIjSZHkCEegZDOTNJPtV5A0X+I7vLbw2tnAcbB78nhfoKC/6IDFwj5QEQLHICACPQYg/SwEDkUgn2spcXohYUI1y5c1EX+WW07gCNRkJCBmOLlwHV601+EIdBFbTkCakERdNdsYkG5oZyvqO/TCc/xDXxLMMaOkGGPLCWyZCbeeUNLs7oAgX1nv+UPrPXto8fPHsHM+gyftuqUdSJkebSnvM0LJfut3Qf/DHIOsWy+LgAi0LFI6TggMIuATN+RMvjOBNCdhJqFm3Fnsy2wzswn2aNJj1iVPbDcJoJ4lqRptmo3cEahfJ9jYCbnPyv1f9CFHwO2QtG1i2qJ9k1Ij92jCrunesthiEq2TLKGapY0TW0/oWZvs7eE4EGcCgvX+Qn0FT0rS1PB6DwREoO8Bnk6dAwQKPsPEW6QCcy0fbJQhogEFsGX6VhMS5zIkzVWoZFexX3MVkYGwd9OznzAaEOPONjDpvxF1ssl8DiAc/hbBbiS4gjD5TrKELdM6W/COJSnifQfvO3ACImG+xJaTV5AyoZ4lcaY4hh627rxF0iwKCbMgz+I7vQuBEREQgY4InE6bYQQK0uQt+mRLqQexZillItVXyOwlS8xwwmhAly1cvYT3S5A0L3rcWUqhtGe6tEl1LqUlVsS6vG7803cK4kVU3sHHOQ/OPAkBQ1wmOAQ5adJjFtGASJjxa3ympAlbZrID71rs30wjSKQ9etByew+1A3gr+tDfhbUQGB8CItDxYamaZgEBJ7hi4qW0wiDtIMMlqF+pgkUAg8bKWZAlpE06BZE8se0khJOQe9AiXmq2fSKfrQuiLFSHs4DR2O8BWLm0mVdMOzBUswkCFzhpcusJJE2qZWMnUEicDKm3AfKkJIpACCTMlGTLqrJ/UJmkzbF3lSrch4AIdB8c+mPuECgIswidx2TSAWyUJE5sIWHOzMZZ5NJk0ukLVxG4HbZNSJ3BaYTRY5QgRA7K8mhysh4gzYI45w7Q427YGW7/QSTMmB2Bd245QQCDBF6yPZBkBAcgRgIiYfqWE0qZlDB7jE+LcwbUs9QOqAiBSSIgAp0k2rpWdRDApO0TsHu9ollh6mTIEHlNZDlx6ZIxZxnUAKH0mEOT3weQPkOQ6j5HoMJG1ydNZ+Xq3GtVWuL2R5BcEeCAEiODtWMrScqgBgxwgG0nDJuXwJYZcfsJtp6km3QGQhg9htxDKL3McQs7bd0YTfU4irgzw0H/ThQBEehE4dbFpoKA81mmlvUAByC8AAENGDqP0iNtmiHjzkKq9CDtcP5pnoFNE5Im/6b6NmgjywlD6TGwgasbixmbUhBfvDP/Zyq3WLmLFtK4vwMrYkQ1Kx2BfNtJ1z1k060NECf2ZDKcHpyA3L5JRyCqZrGXMyNNes8SY/QhiiO/rw8qd/dq0JwgIAKdk46e69v0rQpUsSKPJh2BEITdVbO0ZTKUHpJQ02O2cRakyT2b+J6SaLjAqEBwGCJpwonojZiTE2Vf4pxrdA+++QIbh4oqWuzTpPrVbZm0Z1LapEMQwudB+swcgUCmcAaiCte3nNARqNAQOGvKpnkw2Pp2WgiIQKeFvK47XgQ4UXOSLSbsonbsGQwoaYIIQwY3QJYTesmGiD/LfJokTfegpbp2BcENqJ5t43hXM+aSk0s/rNgrL2rWex8B4OQEl3cASY+SJoMawF6ZwiEo2oWnLCTNBIRJFa2H1AOJUlWbQj2bMuQeM50wVrCrevPK3YO5fyF9EAKVQkAEWqnuUGOGQmDAgcTP6/MbJBX+RvKkExCDtjM4O4IauDOQ79G8ZMEZ2jMhaXqwdkqZOM+diJwNUAcqLCSpoRo2TweTPPniPeMf2jVBnJQoI0iY8TrIkltOGOCAjkDcdrLLPZqMO8sQeiRNbjnJyyB5Ft/pXQhUFAERaEU7Rs06BoGc3LhRnpJLgMg+IVWtjDvbhj2TKliqaGnDROg87tekujZEEmoSKgMgMPdmZtPEtZx8SZj5dUWcb3WAM2RGloUTEMmPYfEQ6SfpUT27BU9ZqGfhQZvAntnzDCcMbAAVLRNUQz3rkYOgzu0HpSgcgfLqMyJ+69L6UwhUFAERaEU7Rs06BgFsMzEEag/h3ONh9EicCJcXwobZpLTJvZnFO+ybAdSzLmkyuDsJwEPp5bP2PvIsGPSY68/Dz4UjkLMaFxd4RViwcLsJpUYPboA9mgzSDlVs/Ar7M+lFCzUtbZwJHISYU9M8sAGkTZ7jWgPaonMA3T49D2DqHmcRARHoLPbqrN8TZ196z0KSbCLpNKVNkmYIm6aTJ+yZ/C3Igx8Ei8xywr2dVO3mREBR06VMvKscjQDxJvkhEHsCe2UW3AAOP8h2kiC7SbQJ4kRUoBiEmUJ1G1NFuwdnINo/+8ENgDNJ0wkT/aAiBGYAARHoDHTi7N4CyQ2zrosr+Ts/cwsKJU38vAiSdEcgBjoAgYYr59yDNpuoB5Bxb05ITioHI+AY8yfgSymRL3fq4daTGKQJ4qQqlnZNBjhAXs0eY886ccIRiPFnSbKDhV3WzzSDP1SEwIwhIAKdsQ6t9+2AEfscR/LEi9tH+PIUYYgrm0f+CSHJLFwLQKKITcutJoxP6/s0mUoMx/N0lkGJM/tG/w4iQOL0F6RCvjPTCUPjQfVKm2XC7SZwBOqt0xGI8WcZsB0SJwIgpN0sjVgaQ9Ik2aL082kqjN4gyvo8owiIQGe0Y6t/WznD9QkTLaYHbJMTOibzfcQJ9Sv2bvoLW1EogbqHLZyGmiTWtwulzYJA33x4+6j5+7uQMgvCpLRJqRFZS2inTBEejxF/UjgCRdxywuAGlDj5QlQg7tf0fZpMQl0EaieK3mX4x0vxnv+pNyEwwwiIQGe4c6t9a/lES3OYT+j4m6RJcnRpc5A083izTpw8gQTL4/HuNjV8Vdgz/b3adz7x1jlxYkVRYOSLFnjPYqHBaD/J7hZsl3QEonqWgdpz4gRpUjWbIJemRdx2QkmzyHQC/PMu9P6Y+E3pgkJg+giIQKffB/PZAk7qLmWSDEmafOWk6apYhs2DdAmvWSfVQa9ZIlaoZrmVQuUQBHKSI9aUyLnlJA9s4Dk1QZwxMpqQOKmqjWjPZBg9JqKGM1AKuyelUhKkq2a5WCFpst9UhIAQMBGoBsEEEeCEnr8KmyZJEzZMa9FTNlfTkjQpXfqsnx/PVkq6PKaviFWOU/FOL1ioaT3SD6RNBmenapb2zN5LBDd4CYcg2jShniVhEmPfpuILFFRHsmRdb8TNY9qgn4XA/CAgAp2fvp7MnXLCHiyFqpUTMaXMBsjSJU0SJ6VMvHKbpjVAmi5pkjydATIOlR1zENG3PgOnYlHCdxZ60MKuSenR82i6lPkcwQ24RxNkCcJ01Swk0IikSbunbzkpHIFYJ/sAJa8y+0P/CgEhMIiACHQQDX0eDQFyJu1q1OwVofAoQVI1S0IMIVEW0iUJk3sy+85A+J3EWUib+PRG0nyLjPnbvJeCJB0HsBslRTpN0RmI8WThHRt3tt2umTAdGKVLz3JC71moZ7l3c4eh9GDLpLTJ8w2qXZQ3+TTRHyJOx0T/CIGjEBCBHoWOfjseAXIfJ3WSYOHUQ9JswvGHREkp06XOAVsmpdFC0uwTQk4G/SuKPPtQDH5wwsu/oP3XSROxZxngAOQYUT3LmLO+P3M9D26A7SjMudnFMQjsTlsoiTMg9k6UBWGyM1WEgBAoi4AItCxSOu5dBDj/UsqkDXOBnrJ4979Blq6mze2a7ggE0iycUPaRgIjyXWCLbwqCy//24AaQNhGEPaF6ljkzdxHxh5ImbJh0BmKAA9o3GfDAU4TRg5bnDRIlFjr+Z3EZvQsBITASAiLQkWCb95MyfW0QYPgw/RcCtBvSg/lnpg5ztW1OmC6h+j8ZaOLLEoMnp7e+dA7QchUtY8um28h08vKJRc8fWu/5A3yGMxC3m3BLClSzAVOCUTLlOf3IFJIuSwCvQ4TAUAiIQIeCSwdnCECCgaTJVGEBgrYbsp3Y4hlInVTTgjhpBx2UcVziFHMePHoGyNJVqvnftGvmjkDuOUtHoDx/ZvY3grczgDvSg8Xb68ipCUkTxAnFbGZNZpYTl/hBnHmVB19f3woBITAqAiLQUZGb4/NoOwvgFBQuIyUYgrjb8mqmxu1jks/Yzpkizj4s/Q/AZ5DUuMBwRyCQZkJHINo0IU0ilF6KbSc9SpvrT6z3AqpZBG/3fJoRbJkkWIbRwzmFmjajT1yo8KLtX1MfhIAQGDcCItBxIzrr9ZEPOTlT2kQKsYDpxOhhSwcikgDLoI0z+0b/9hF4izyJGdSt7tyDLCYxQugxu0kCJ6DIIwFlWU8oaUYM2E6bJ/JpFk7L7gjEukWYfYT1QQhMCgER6KSQnpnrYMLHZB1g76YHby9EKQmaB/dw345JkRMgcXGB7CaubuXeSwZtByl6Imp6zr6EXfPZfbw/gYoWqlkEdvetJo5vtkDx4AYHX03fCgEhMEEERKATBHt2LpXpH50bBlWRs3ODY7gTSpp4+dYeggTbcArnHnjFplDNcrtJ9PKR9dZAlutwAmLwdqYM26N3LYK1d/ZweE6eOLu/5USS5hj6RlUIgfEgIAIdD45zWYuEzoFuJ1kWL5fKc0kTnrG+/xJRf7ithN6yVMcy9mzv5VOLYNdktpOU+zRjSpj5i+BS0if3shTv2V/6VwgIgQogIAKtQCeoCXVFoGA1sF3hCEQ1bWHXhE2TwQ16DGzw4rFvPaFaNt6GHRMRgxj8gOSaUirllhPfr0nSJHvKe7auo0Ltnh8ERKDz09e603Eh4GJhQZ6olORJEmQ0INozsU8zgfcsc2i6UxBtm/CijRBSLyF5Ii3YPrKkpOlbf6Dm9TJQd/6N3oSAEKgeAiLQ6vWJWlQ1BPp6VDYM5EZJkS/feoK9l9x2sgXvWW41efbQItg1u2sP8B0yn/R2szRiMTKi5FJmZs/MyXJf3VW7cbVHCAiBoxAQgR6Fjn6bbwRIbnx5Si8SHskTjkDcbsIgBuvP4AyEdGCQLBlOLwJh0sZZhNZjNpQsWHsGYz81GKpREQJCoP4IiEDr34e6g3Eh4NIgSZMVkiwhZTJYQZRlL+FezZSZTuD0w+AG8XPYNV88gm0Tqlmob/3YhIENuE0FL1Y1KGF6veNqrOoRAkJg2giIQKfdA7p+dRCg7w4dePjOTCcgTw+V5+nAQJivEKCdIfUYdxYetbRzpvSshUT6Rj3LOsiUdALCS0UICIGZRUAEOrNdqxs7HAGKhvi1kDjdgzbfo+lSJjxjsf0koqoWmU16L2DXpG0TQdsZIShxJyAcz5KT5H4noOwn/SsEhMBsIyACne3+1d3tQyAnzky3mhMoDoC6NUUQg4hbTRAFKHr2AFlO8BlkaV2obJkBhcTqsWcZ3ACxgAfr3ffH4A/6LASEwCwjIAKd5d6d+3sjYeLl0YDgBMTPTPXFaD+7UMHuIKjBVvaeIBJQbwPJqF+sQcqEcxBUtcnOVuY0BFsos5zw/ACq2UzoxN8qQkAIzDUCItC57v5Zu3mS3MA95cENfN8lnXq4lYSxZxmYHerY6MUDxJylFy2Ct5NIGdwAsWd9TyecgdzjlvZQlCy4wVv1Zz/pXyEgBOYUARHonHb87N12QW58J4uC+ZhUGlJkhHyZJM2U20w2KXXib5Imsp5kkiacgkCeWYGEyXMpZvpr9pDSHQkBITAeBESg48FRtUwDASdKXhiESa9ZZDlJI6hoYwQ3gKMP1bTx+hqCG8CmuXYvD6WX5dN0cqVUSrJ0viyiAOX18U1FCAgBIXAEAiLQI8DRT1VFgIxHSRNSYgN5SbH1JN0DYdJ2ieDszHIS47MHO4C0mWxB6sR2E6pv3RkIqlwvOL+/T5NCq4oQEAJCYAgERKBDgKVDK4IAiZNBDva2PDB7vAsVLIIbxMhu0vPABtiz+RqRgpA2zOg9S8KkhMpzUPr5NEWaFelQNUMI1BMBEWg9+22+Ww0CdRUtpMzOnb9a98ld2DQhccIRKCWp7hXE2cvi1RKtPlnStjnf8OnuhYAQGA8CItDx4KhaJokAJVDYO5ntpPvgO+vc+8adgtIePGe9QNLkMSRKbmFREQJCQAicAAKaXU4AVFV5wgi4BJliywn2c3L7CZNW03HIvYFw7YI8T7gZql4ICIH5RkAS6Hz3f33vnns8GeCA2VFInJbZN6WerW+XquVCoG4ISAKtW4+pvRkCvoUFkYHydw/eLmyEgBAQAhNEQAQ6QbB1qXEjQF3ugEfQwMdxX0n1CQEhIATeRkAE+jYi+rseCFBrqyIEhIAQmCICItApgq9LCwEhIASEQH0REIHWt+/UciEgBISAEJgiAiLQKYKvSwsBISAEhEB9ERCB1rfv1HIhIASEgBCYIgIi0CmCr0sLASEgBIRAfREQgda379RyISAEhIAQmCICItApgq9LCwEhIASEQH0REIHWt+/UciEgBISAEJgiAiLQKYKvSwsBISAEhEB9ERCB1rfv1HIhIASEgBCYIgIi0CmCr0sLASEgBIRAfREQgda379RyISAEhIAQmCICItApgq9LCwEhIASEQH0REIHWt+/UciEgBISAEJgiAiLQKYKvSwsBISAEhEB9ERCB1rfv1HIhIASEgBCYIgIi0CmCr0sLASEgBIRAfREQgda379RyISAEhIAQmCICItApgq9LCwEhIASEQH0REIHWt+/UciEgBISAEJgiAiLQKYKvSwsBISAEhEB9ERCB1rfvpt/ydPpNUAuEgBAQAtNCQAQ6LeTrfl2SZ/Gq+72o/UJACAiBERAQgY4Amk4Bc6Z8JVOGIgWHT7sNU4ZAlxcCQmBqCIhApwZ9jS8M4kyTrqW9Lm6CYuikC4ctrpugHVFkQRJlZD6Npkz61nU9ISAEKoOACLQyXVHxhpCcCokzCC1oLli4uGRB2MQPwRQaH1jQaFnQXjJrtsxCDmVIo0Ubp9AiXVIICIH5QoCzn4oQKIFApipNQZaNpTPWuvSBta5+CgJbnDx/prFZo2HhqbPWuvapJTubllAa3t16Q6DT4PQSKOoQISAEZgcBEejs9OX478RVoiBOSpytRQuWzlpjccUaF67ZwkdfWOujn1qwAAkwIFtNUH8K1S0l3/DsRVv4+GdmcWThwopF688s3n5t1tmCIAqSdfsoJFOR6fjHhmoUAkLARKAaBIcikLqjEFSl7bY1zl22xY//gzUhdTYvfmCN1YvWOLVqht8myZ1ZY0HWjdAay6csuPaZNc6sWvzhE+s9vWedhzete/+mpTv/f3tn9hzHmWX3m5m1YCFWgvsqkhKl1nRLcrdn3OHwg/3m/3pe/OAIx9g93WqNWhL3BdwBEFstmelzbmaCRapQlQVAqO1kCEAx9++XpTp173eXLUvjbI42cIE/dJjaIAIiIAJHIiABPRK2CT4I2kThDKCKYW3OwkW4Sc9eturl21a7/rXVLlyH6xTCWYVw5oE8p66gFHYulRruBT8Q0HDlgkWrFyHs5yxaWLbW+kNYpC8sgUWatluwWCNZohk1/RYBETghAhLQEwI5SacJggiu2bpV3FX7ldVv0vK8aeHcElylcxCu/G1TCNmwBk8dzb3HIYKJgtVLsEqXrHb+mu09+N4a9/9urWf3LN56jR2V7jKsx6TrisCkEpCATuqTPcq4OLfI6NozK1a9cMNq1+7g5y6ChSCei6vZGd2ty2jXo1zgpI+huYxzMqgISuoBTfUZuJaXbBYRutHMnDXnF+HW/cXid88taexi32xO96TvROcTARGYPgIS0Ol75r8ecW7JUTyjpXNWvXrHZj//1mpX7iBQ5xysUUTaFtZm8ffXZxnyGoppMRDMj65dtZnZBcyPrlmwsGT7//iLpW+fW7q/A2MUeaOe9jLkW9blRUAExpqABHSsH98J3Dx1BxGrDLSpnr9stZtfW/3W76129Qu3RK2GHEsKE6zTsVgKEUVwU1A5azXOk8ISDZFu0/j5L+7Sbb/fzAKHFZ07Fo9UNykCo0pAAjqqT+Y07osGGxbOH0YIwqnD6qzf/k9WR2SrLSxiCxSGwnmSVmeviFi/n/ym/M6O+ouCn7l1DZG6lepNm4WABiELLiCYCJG6MXJH3f0rET0qZB0nAlNPQAI65W8B5ndWzl602d/9GcFC/2QVBODYmQVoJ/InOV94kuJJ1id9vsOeH69DcaRg1zCvu3IRXw7+kOWzIne18fO/W9Lcw/1QaLWIgAiIwOAEJKCDM5uMI2BZhnXMEa5dtplbX9vMF3/0/M4A5flcdNyCO+JQ3cqEcHVamzxfTDcw6+giWCnOhYv7hPyBZWgQbVQYyuYnsY4mogtu8XfA+ymOxWEMMKqcuwoBhUsXpf/43aD1/GdLtt5BQxvYAdfWIgIiIAIDEJCADgBrYnalcYYoVU9Tufutzd79F6uiOAKibj4WvYEGTMHsPAAXyd2/XhWo0UA+JgrQxy384O/+PnZHvimDeVjLFpZwiHuyat2LMwRRx1uTIluIMU7rwtp5qVKvcSCuEy2ft7CKlJelFdv536k1mj9YugMB5Xk/uv9SJ9VOIiACU0yg41NqiilMy9BhdnmRBMwFVuGqrd/5vc3c/s7ryR7kdpLFQG7WXNwohLQiadrtvPeSevEuihjsbKCYwXbmLqV4uiUao5MLBBX7BrD8UggnrUKKZgABZa5pgMCfACkozOuM5jAfO4v8UxZvoOVKYT6wTks+PHfp4l5x/mC5bnWcr73+yBLUz209b2JOFIFFFHAtIiACIlCSgAS0JKhJ2Y0iwTxJBgzNfP5HCOmNTJgofAMJJ4jQKuQxFDRU+6E4po09a796Yu3X+HnzzFpv1i3efAvha310/qxMIM0+noYiDAH2PxBRzlnOLcBCvmCV1StwLV+2CoKcAlRFQin7zMXr++fX97OU+OXjwzVxGK3R6vW7Fu9T3PeRI7qPlRRmLSIgAiJQjoAEtByn8d+L1h4sxHDhrNVvfGl1FIJnwFAwN58J21HEk1Rw3gQWZ4pqPy2UzovfvrD223Vrb7xGBaA3sERhge4x4jUTy0wlO3AWq/NVtEi9RRpyT3meaOGRVViebxViunYJQopyfcztnEegE6NqadEenLvjvIe95BeFTKndbc28UIp+ChGN36172T8/lCKrRQREQAR6EJCA9oAzcZvQSYW5nvXb30A8b1g4eyaz5twlWnK0xVxkG9YmLbftt7A2YWm+eGDNZ/fx+hFEE4KKbSndrS5un1h2n4hm55VTRMW6m7fdQJuyTVixT62JqNloYcUFtHb5Dioj3fLX0TyqI7GYfW69lhbSXHADWLmsuETrM9nbsT2IfWYp834VVNT5XPRaBETg1wQkoL9mMnlr6LWsIAoV1mft0k0USbgDN+5KFvE6iPVGMpznpLsWRdpbLx/a/sPvUbgdoknr8/1br/STCSfmWxkkRGvv06o/hYB2WnlcV/zbrUQcH/MMKAQPMaWVGG+/g6CuWwX1bavIVa2j2EMVgppFDuO+ePwg44HwhhDmGgrlU0Cbj3+0GGLKQCctIiACItCPgAS0H6Fx3w4x4nxjhHJ2tUvXXXCipfOw3FCej4pTRnB8jjJTt3R/F3OaL639/L41Hv6HNR/+gK4nL7M6syyRx93cIoQr9jB23TZ0rvPXOB6a6AvENaWIbrc8IKm9+c6SzTf4N4KU0Eibrmh2YGG+p4t1WYua7l/MhYZLqxDk61ZDzd8mvhzQ9Zygx2jA9BotIiACInAIAQnoIWAmaTXnPivLF1HjFoXhL93Oatu6K7YwBcuMFvu22nDRPrbmgx8gnt9b8+l9t0QTRNRC4T6IZ5nTDbIPdSylSxWuVX4hwJxq61XsrldGz87cYd3e215NydgtZpAFw/KUngU05/78G1i6+ILAovNszM2AJS0iIAIicAgBCeghYCZiNfURgTbh/DICZtDT8/xNCxGQ88G0KzFKWpNMGYFrk0E9zXt/s717f0VN2fuw1F4igjZ3nfp+Jc531F1yq9QPh4gmiJ5lXmnSQHF43B4t0VoCS/vclTwdxVW3/9XoLsaXiRAl/9h5hk25o1coOg9h1iICIiACvQhIQHvRGedttNQQCBMid7J2HqkgaIQdLZ/1UnYHeZR9xwcRgrhQnBK4affv/bs1fvo3az5/AIF5n6ef9D3Jye+QayMLMiSYF208+BuGhHlZ3OsMxhstX4Brlm9t7NjPRc3ttMbh/o1WEOWLnqIhOSGgiIFQiiU6+cenM4rApBCQgE7Kk/xkHGlK8eAcX8ULJTDalEUJfH6yVL4jjqewUDw3XlnjyY+2/+P/ycQT7k1GygYsuzesBbfmlicCfhi8ZM9+QXwT0nSqVasj2ph5pB7w5DOxNMX7LLCgA0T7Mi+2dnkdc61bKLDwAEdjjArI7QNPm0VgOgnoo2FCn7uXyYvqVplfgihcwxwoAodYJs+Lp5cQFHKhqxTi1Hz2szXgum0+f+jzj5yL5Lzq0BeKKISPQVLJ+w13KzfhXm6vP/TcVLe0P40A7nbTtEL9J/H0mCr6oFbOXu62p9aJgAiIwAEBWaAHKCboBef1WB4P4lk5ewUuzYuwyFAOj/VlKRR9FygTXcBIHWm9egwX6Q8IGPolE0+PtB2t711MlaGbmRWPmpX73sc0ZB9QWJRe/o/Rtv2WnAvniyurF63CRuLeC5WBSziYYq1FBERABDoIjNYnYceN6eXRCXi9W8wFVlbXPMeRRQiyggMUxj4CSrct0zeQChKzutD6A/zc8wAit15/62ChowzbxQ3WcguCv4G52geIEEYwUIw0F0M6iruiy56Xc6EUUcyDRkuoeAQhdvHsg63s6bWfCIjA5BCQgE7Os/wwEnzYB9U5qyIgpoqiCT4f6MJXQgUooFQMWnRwhXIekHmeaYu1Ykd44fjcat631mtUL4Lwt/E3RVUkzw31cZW4f+wXIBUmWjnveaFBHaUOMQnKkg5aREAERKCTgAS0k8YEvQ5ZkB0WVGUN9W7ZpqzMQpGhhYq8zuT9G2sgMKf18jEibrc9BbPMKYa7D97OsDjTvV0UtH+MlJSHXr3IXddlBRTjD1EekG3POBfqbmAOim5xLSIgAiLQQUAC2gFjUl4yOpYtwTjvmUWj5lPd/dy3tDwxX5jA9dmEcLZeoqPKFsrzId8yiGiZjvjCW3RLO7H25isX0fbma4gq5kD7jj0fG4WSfUPh9maP1KB2nB6pI85LtycCInAsAhLQY+EbzYODmTMIpMn6aAbMhyxrfVF82m1PC2m9xBwixIeVebz1WJlo1lHAket8gjxOFn5I0FqNZf9Yv9eXfiwotIgwDupnsq4vsOTZIUaLCIiACHxKQJ8MnxIZ53/TesKHfTi74BZU1m1lEMsR6SC5+5bzhyywTos0CMZv/s/bk8F6bqFTDPuTWhPlBn3pw4MCCoYBgrDCWeSTMvUHX0K8KP44vzd07yIgAidOQAJ64kiHd8KseAIMKFqgi8vomYnUFfbM7Gd1FbeMFBUWi2/DYmtvvPCo1nGd+2NHmBRfAGIUgfBgIgRF+VKWBdzgQXUG/VIX4MZFfV1PAdI8aPFW0V8REAGGF2qZDAI0Et0CxUOdRRQpUzFQkSebE+xjdeWikrbQ7WR3y4snxFvv4PaE6Pih4/g2CfEFAFWUUDUp5pcBb1HWh0PnOwG7BhDNCK5wWqJ87V9QOvfRaxEQgakmMI6fjFP9wMoM3gOIYH16AIynX5R0wdJ9iyLqFM/k/RaCh5BDyWUA3ckOGP5vdzvDoo5RdN5L/fHLAFmUskBzXpj35ReRiGUBmQ+qRQREQAQ6CEhAO2BMwkvO1YXo9RnOwO2IebxBlhTzhExZSVAo3vM+2aJsXBeIfoqyhZzTjeHK9ZZrZaNxc/1kuUJGMTMoiy3PxtWdPa6PUPctAqNOQAI66k9okPvjFB1djxVEjmLeLkA6hqdv9DVAcxOzvQ+LLRebUgXnB7m5IezLcTMvFEUgEkYTQ0wzN3dJkxqt2iK0OYvwCdlWOQAAG+hJREFUZYQuXC0iIAIi0ElAAtpJY1Je48PexTMs+aGf60mCVA+KTBoXEavjDgT1fDEv7O3YkNvKACmm6fR3435w4TKdhV1a3AIddxy6fxEQgRMlIAE9UZzDPBnNzzxKFEUPslZjZSwt7pPtxzlPBt6kbUSwjuPE50f4s7d2gJq+TGFJtje8CbexGH7ZsWG+lO7wgLmg3l/0owvoHyIgAlNOQAI6UW+A4nFCEKmJLAo/yMKuJSw4wALs475w6DAk/UsBGmMnsD59HpSCWiqQCMeDX1CHeKLHqEczD4hz3BHq/kVABHoTKD5xe++lrWNAAI/Sn2bnI+07+fnxuCguFNGEytN5no93G5t/0X2LLwMUzhSdWvjlwKsqlR0A8SH6NogQjDUK/U/L3rf2EwEROBUCE/ApeSqcxu8i/PDPPbqlb971Fr+88tCgB5e+yunuyNxYFoigeB5E4fYxJcnBWdAVjvlkiqfK+Z3uc9PVRGAMCEhAx+Ahlb7F42oeXZsuFBSYCXhr+DBQUagQwXEoiF/6YWtHERCBYRMoGaY57NvU9fsToHoWP/337rZHGkE0UcIu6595XDXudoVTXhfAesT8JQtLsMcnm2NnheHdvDz8Zg4MVHQBRQWj1N3a4NHnsMNPqC0iIAKTSGACzIxJfCxHHVP+ODGHOdBcX64Mbqkhh5TtvIJxV4tC7JDLyfGEaEsWspoQvyQU2/phhpDS9eslDVGUQYsIiIAIdBKQgHbSGOvXHx6l5z7Saio1CfpBTUKkaoSoXsQUmEmp+8rKTCwEH6Iggpc29GCgD2Pu+chj7MciDCwDyAArLSIgAiLQQeDDp27HSr0cbwJ0OxoLqTPnke7IA5fkIeMq9ATl6tjGK2AHl7FfMnd2inldWtbh/ArKG6KmLYtLMLCo30Im+BIS7+6gAMNeXoy+30HaLgIiME0EJKCT9LTxNN11y7SN5q4F6K7SXz0/AAjhvo3QwSWcQeWdyiREnqKvJ6zpCO7byhyK62NcPsfLnp89F3zjwH+spZuiLnCMHFJ35fY8RhtFQASmjYAEdAKfeNKA2xEF1L32a6nx5YLCqjtn0H1k8SwsNggOC6iP68IhsRACx8RuKjXOf+JLQV9zvGMXWKrxzgZElJ1pUN6wnyU/rqx03yIgAkciIAE9ErYRPSjPVUybe3A9oqNKA8UD+hlbHUNhyToKZ7iwgjZeSz536JsHOEfH6Yb6kqUIGXVbwXii5XPoTIPgKF/KDIZKiTAqCCj7ibI7jcGa9/nU/Cz6IwIiIAIS0El5D3RYR3Q5+gc/Oqv4fF8/zShcmoxWxTxhtHAWP6uIXqXo0C9cYs5wBDkG1Tl8GThrtbWrmNsdREDzwaDwQowauvE+vozERXPxERyobkkERGAoBCSgQ8H+21zUm0jj1Kk3kUZTbPT2zOra9lPQ/H5gwTJfMlq5YJXz1y3Cay7jWlg+rM/A+lyzCALK6OJsMP1Y5N9EGIAFS769swV3OOZAWcVoEopLZBT0WwRE4AQISEBPAOLonILWIoJH99AU+z0EdG/LI0l9pd9kh5na7aZhiTIKtwKXZ/XyZ7BCEbnqxQdw0n660+18w1iX3ycDocLFVavwy8DKec8FLTWHSURMAcI8crzLFmjbmEvex/hhhffBN4zh6poiIALDIyABHR77k7+yf8CjgDpcuPH2tsUIJMoKw/NSZT79oT4ItAkRdFNbuQRL9FwWgIO0lsEKM5z80EqdsUPnK8sXrHbpplXPw33LICIGEFFcC3f1oScEJ1ib/BLS3niFeWQ24c5V+dBjtEEERGAaCUhAJ/Cppwh4STD/mSKClFaUN5HmOPtpKIWCeZOIXA0RiVu7eNMqZy95Q+nxmQflGJC6snoJAvqZVVavwPpkxcqSb/UQ+6H6UHv7rbVePc6tzxLsyFeLCIjAVBEo+akyVUzGf7B4qozEbb97ae2XD/x1Nqh+CpoPHSISzi9Y9cZdq125lUXkctMoBxPlRiI7pwQzZ6wK4Y/WLiMtB9HEvi3fIR/ioX8gvgkENN54bc1n9/yLCMx47K7/VQ5lpg0iMKUE9KkwiQ+e6SyoRBRvvrLW+kNLGnDlUkXKNJIu3JWIWq2eu4650NtWQRBOhFJ4Xt6PJe1KatFpoi1czAEKQdSvfGbVizessggXNFJzBirDhy8JLEKRbODLx/qjLBUIAwnKsDvNAetaIiACQycgAR36Izj5G2AheKZdxAgkar955tV0jOX9PBCmhBVauHLrs1aFeM7c+NKql257QfaR7IvJ7wYYMwvGV2B1zn75X+C+xf1y7tP91mUUn1zw02xg/ngT859vLN567d1Y/AmVwHbyT1JnFAERGGUCEtBRfjpHvTdYoGmCedDtLWu9eW4tuHKTHRQDYHRpWUuKIgp3aLR0zmrX7trMzd99mA/lfY1QcXW2Gwvr81a9cN1mP/u91W985fdt7L5S1lwmF/wkzPvEl46YAUQshThC4zzq20HHiYAI/DYE1A/0t+E63LPSWsIHf8KKRJjLayMYJkIqRw0iY3OFqJSxyqApcN1Wzl2D9jatxrxSLO0363Bz5kUa8upHvuE0f/ntZ+7ksAbxxD3WP/va6re/9TxWQw6of1koNczCvEyt/RZfOF48gAX6El8g8P1yWOM7TZa6lgiIwJEISECPhG0MDqImcD4PqSyt5w+tiqjUlHOCKG1nASzRMsLirlwUV4ArtHrhZhbNy76YOC9dwwnSZdCz+vRFhvfOseH+GDRUvXzDZm7/wWq3voHr9pYZi8bTHcv7LzVQ7ga3N+aN+WWj+ew+BPRFNu9ZaCt20SICIiACnQQkoJ00Juo1rSdYobAcW68fwaq65PODlfllpHXQc+8K23/ELqKBhSgyX7v2FYqqtyEsyKlEXmX7FeZXWWSAbk6e7jSsNc7jMiIWhe4jBAjRxTxz909Wuw3xRNCTwWJ2V7Xv1394B1YqOtjE79bB6om1Xz/3PFB2ctEiAiIgAocRkIAeRmbc17s+QmgwP5hsvLUmIkpZoo/WJHMkXezcQus3UFpxro4WzM5aHfOh4QzK/S2uWOP+99Z4+gusXMyvlmre3e9aJbdzbha1epmnSsuzyvnZlYvmblsKZ6lx5dei6MOqTlCyr3H/r/ii8RhRy7vZcKSfJR+IdhOB6SQgAZ3k5+4iyrnQXXe5Np/+DEtyCXmdK5nYMHCmlNjk/l6ITbC4bFUWnUeEbjiL3qE4V/vlY2sjYjWBkHrRdViIWV1eiBPv4TiLu2p5ksTdtSx0H8IVXbtwzWpXP8e85++9/drBnOcgQT8+/szNTZc0vxBwDpRt4ILouDd+nEHrWBEQgXEgIAEdh6d0rHukiEFEkdLSfP4A3UkggMzrZH1YdigpLaL5TVBE5+atUr3ubt3K6lVrPPremo/+Yc2XT9ySg583E2a3Bnkc3a7FgvvhUuhTrs3ZSv4u9s3FF5OsAa8ZVZCWcsbqqNFbgXByrpPBTdHSWlamj+MYdOExeyg4gaCo5pOfssIJW+9Qyg/Rt7RMtYiACIhADwIS0B5wJmKT60poSQsdRRAY04LLtbl62epoVRai1i1TVejCLL34nCiOQcGCED81CHLAwu3su7m0gjnEp54+k6KDCS1fNqJmmonrIqNaLb9Wp0AV85WFdnJnNsOuQjzZHQbnrsDyrKxdsOqVz5GTCvFErV5GCLvQ0eosZUkXo8zFFsfFW68gnj9a495fUXjiXTanS8HG9bWIgAiIQC8CEtBedCZsG4vMNyFw4c//D9bcItJaZlHqjlG5ELZCxMqMmfsm+dwognkqF25gThJBRvjbeoGAJViiMSv5vH/r+adMp/HAHh5TXKdT8Fyr8CsX1SDC/cA6ZlPvCizMyrkrWV3ei7R611xUg2o1u1N32f7KjO0xCl4Hm3Fc+n7DWijX14Trlu5tfMvALeDLgd9Pj1NokwiIgAiAgAR0at4GFEkEy0A0ms9+wbzhKlJQarDoblsA687iAbuOuABmIspm1cEZnK866/OrlbVrFu+gnZr30nyPvqQ7SHlBizUIeNrch04hchcVf9xqpGBBDEOcI8TxAQKUWI6PVYQqs2fc5cyAoQjF7el+9uIIFFqKXKcIl32OxXGwjJtPf7LGg+8h+A+9abaX65N4liWp/URg6glIQKflLeDCgcG20ecSVXYaj36AcKGoQh01b1F0gHOMA8+HOrvc+kPKRwDBo8u1BrFLEIhDsWRRe2+vtsvG1OitiS4xSb6eAugWXxWNr3Ef5oFJi24de4BSDWLKe+N9oqWa0TItrjmI0ZkfVVjavB8GCzUe/t2jiOPNN8Ue+isCIiACpQlIQEujmpAdITxpG7mhLx95LiUbZvOncv5aJqgc5lEsO5qEnDekyKF9WMhKQDFq0fr8Z9siFClgmzCP0kW/zTRGoBGLHCCQJwjxNoSAu4jn98M8T89XdZcqzlsIZuECHvhx4Bz4z2vdvoN4wo3dfPwjOtawqtIeNvEC3EGLCIiACJQjIAEtx2ky9qI++HwndA1l+dipJaTgQbxm4Eb1PFEEF7kQ+tziIMOmMvOHx/iFXEhhPvpJwrl8XaFR+Xynb6Qo+nHF8fxH/trPmf/bdz7CL4/QxYUb+7nl+YPt/+PfrMlCELSK3RIurNsjnF+HiIAITCUBCeg0PnZoCaNMU7Q5Y4EFOFLRyaRu9Zsoys7oVrhSj7dQ8LD4n87XuXr6n08if/Pd8oN+fXy25mi/GTAES7iNKkONB3+3/Z//gi8P993FzBOqVdnRsOooEZh2AhLQaX0H0AJM2rBE0bHlxUPbo+UJF2vtegONqK9lKSJu/cE6PPICVTwQRp6kU0yPfNJyBxZWJ13ImPNsvXmKaFuIJwS09fy+BzX5iTot4XJn1l4iIAIi4AQkoNP8RnB3LoosIFq2+eQ/MGfZRPBP0+rt2CqXPvMoXda8PZgapKCO+uLCmd8kIn1ZHSlGSzdG2zYRNNRaR6m+7TxoSOI56k9T9ycCI01AAjrSj+eUbg4BPWwi7XVt0QOTQTV1pLVUUZw9QC4m00x8GXUBpXgWP7A643coHPH8ge2jUEILKSusOMS5X7pzVSj+lN5buowITDABCegEP9zSQ0OFIE5LuiX69J73EU0ae563yT6bzMP0FmGMiOUyakJaWJ00kOmyheXZevXErWqmqjQf/YSxbXr0MXeRePIhahEBETguAQnocQlO0PEsAJ+20YT77bo1mk2UuXtntcu30G/zNvqB3rCQdWeLEnejJqJURljPye4mgoUe2/79v1nr8U8QUpQWRFEHLyeIXQqtnaDHpqGIgAgMiYAEdEjgR/Ky+ZxgVjEI/TFZPWh3A+7dDbfgqhDTiBWHUC3I3br5HOqH9JXTmCPN3bQFQNbx3Ud1I851br3xSFs2xKbLtom+nizcALM029ujf4sD9VcEREAEjkdAAno8fhN6NNI+YogOrLnWOixRzI/G71DbdvOV1a7c8W4ubIvm3VwOCHwibFzvenocUeU5Dy7Q8QLnZJ4qmntzvrbNe4PV2URqShu5rS22JNtGazVWQ4LAolTDIefpOKVeioAIiMCABCSgAwKbit1pWUJz6PZMdlHLFpZovLNh7W3Ut918be3zN6xy9hIKvaM+7eyCl+/zGrWoQOTdXaicdPFS/D5y9fYT0w619Jf4RZ+rnyM/Zz7Hmezt4H7eZoFCSMNhI2zmebJMIedvfeHcrny2U/GW1SBFYBgEJKDDoD4u14SQuleXGsYqPi8gUJgXjRBoVF09jyjdKxYhyKiyfA7tzNjWDMXfUZDBvG0ZRNiL+7gSHmHEEMwiBRWimbIMIIrQs7MLe5uyBF8bgUKt9QeIrn3pLdQSzN9SbL2+Lq941Esf4W51iAiIwPQRkIBO3zMfbMSFCKHcXopC9OkOOqk0MDcKi7T19qVFT+7DEkW3FAQYhYvL6MayjD6hKCo/O28BisGHlSwFJoUlGFBYKcq0Cg8sQ7zmub10IIKY8Drga/wk6JjC8nsxrM1kb8titEeLYQG7S3kbxelhEcf4SbE99W4yGJpfY7Aham8REAEROAoBCehRqE3rMRRTGoaYWwxQkD6mJYjUliYaW0dnIJ5nVrwvaIjc0Qj9Rr07Czup0BSkOxX7egoJ/7KAvIsoRNPnM5vuMvbXsDgDzG/yOgm7t6BakovmewQJvXnhJQhTzn8ygIjuXdbSzd3O0/poNG4REIHTJyABPX3m439F1yy4VVOIGEYToIJRCquUQUZhje3H0B8ULcrY9DoI8rcYBDRF0fqQPxRVWKa0RCmY7MySsj9oDDctxZSCyPUoNWiojJRArLk9hvvWaG1yHpQLDdlcnLMV+i0CIiACp0dAAnp6rCfnSrRE6YotRkQXLFyt6T4sxnSjWPthDtPXwH2Lzi9uhTLYiNWNaDUyStbnN5HDiTZnHl374Qz5PGq+Inf/+hznwcU7d9ZrERABETg9AhLQ02M9uVeiEGIJGPVzMLcJbex47duDzOWatrEfrE1XYLhgUx4HUzYI8To/l5+Q50Rxhw8Ld5JyfuChVyIgAsMkIAEdJv1Ju/avxO/TARbilwmm+3+LXXwTA4yKFcXfX60oNuivCIiACAyVQGY6DPUWjnPxTuvkOOfRsSIgAiIgAqNKAF+5R3IZcwElU4noSL6zdFMiIAIicFwCjLJPRvczfmwFlI49j8D8EMpy3Eel40VABERABEaJAOd0igYWo3Rf+b2MrYBSPn3CjPmFmiYbwbeWbkkEREAEjkcg5Wc7PuNDxleM4Of8+AooYSKnkPmEyM4/3lPS0SIgAiIgAqNFAJ7bkJ/t+IxPmfo2ggo6tlG4THdg3VUm7jO/UIsIiIAIiMCkEOC8J9LaKqhaVpv1wiyj6GocW+VhXdVgZt67gVgEK5RhWqM71zwp72qNQwREQAR+cwJeoROf5wE+28O5BQvrc5aiBOioLWMroKhSbgE7gCygwTNKx7H8G1PytYiACIiACEwCAXgZURK0ws/4M4soAyoBPbmnypqq6EdZWTnv5n3KUGfp58nx1ZlEQAREYEgEWCc7qNcspHAurqLD0wLM0dGLIhpbC9RduOj6ES6f9y4gAUx8NU8e0rtdlxUBERCBkyJQuG7RHjFcuWg2t4RAoryr00ld44TOM7YCyvHTPx6whdb5axatrlnAiFx28tAiAiIgAiIwfgToRcRnOAOHKmtXLLpw3WNdRnUgYy2ghMoJ5sr1u1a9fMsMDZwP+kOOKnHdlwiIgAiIwCEEYABxOq42bxE+06tXvrAA/YZHdRl7AWUgUfX676x69cvMTy4DdFTfa7ovERABEehLIIUFGmHOs3b1rtWufWURXbgjuoy/gM7MWeX8Davc/J1VLsLcP7MM3y6GJVfuiL7ldFsiIAIi0IVAQusntGjlEryKn8P6vGvB0lpWLKfL7qOwavwFlHlCCHOu4ptK7c63VrlwA3OhNegn3AAS0VF4j+keREAERKA3AXxWp0j+ZG5/9cYXVv/qTxZd+sysOprBQ8VgxrYSUTEA/wsRrV4E7K//q6U7m5ZsvbSk2cjmQ7nD6EU/f3T7+ocIiIAITC0BF0+krSAINFq9ZLXP/2jVr/5s0dnLcCaOtkSN9t2VfEcxpcVmF6z6+XcWb72y9usnljb2LdnZwhkyt0DJU2k3ERABERCB0yLAqFu4bUN6Es9ehHh+ZzN3/9nnP40FckYw97MTzUQIqA/IS/th4vnWd5bs73owbvOn/2vp/jYs0XzIskQ7n71ei4AIiMDwCORTbEFUt2j5nNW++meb+8//0yo3vkYULsRzDFyHkyOgfBugVmJ47qrVv/wXt0D5ANpPfrJk87WlMV263Gfsp305Ui0iIAIiMJ4E+DmcxvgFty3SVSpr+My+8werf/vfrXrrGwQOnfNt4zC4yRJQL/80h8IKN63+BzyemVlrIDe09fB7izdeWNJqWMBIL7dEIaSySMfhPap7FAERmAQC7gks8gwpngsolHDVal/8yerf/Q+r3f7Gy/aNk5EzWQKav8kCprZc+xIJuAuYmK6j6Py8tR58b+0XDzEvSpcuHmKEiC/610e0Uesk/P+iMYiACIiAe/7yKFuGpARsUXYGMSuXbiNz4jur/9N/Q9Ttn/3zetTnPD99mgFCh4sZwk+3jf+/201Ldrctfvaj7f/tf1njL/9qTbh008YuxgbxPBh68a1o/IesEYiACIjASBHwvHzcET2EnGZj2uFnX9sMhRMBQ56ugvQVbhu3ZSIt0IOHgHxQVvK36EubRUQXayvWn92DJfrI2m+eWfzuOeZH3yHoaAdi2sZhhVtX86QHDPVCBERABEoR6DBEfJ4T/+Zn8Dym1RbXEGWLAgnnrlvt4i0v01dBqb4Q85/B7OiW6us37Mm2QPPRpwkmrFtNWJ7vLdl4ba1nv1j89B/WXn8AIX1h8ftNM6S9uIhijjQzyifXMO/3ptB2ERABETgaAXj2mBERwJoM0ewDcSjREhp+nLtiFRRGqFz7Ajn7t9GmbCWLtGVDkDEO7JwKAe18I6Rx29Kt1wgqemXJe/zAAo13UXxhFzmjTH9p7mVim4dYdx6r1yIgAiIgAocRgIs2gvcOVifbS4awLIO5RYvmV+AJ5A+sUPRvDs/AKzghy9QJqD83zH2yYDHnQAHAXyd7772Kke3tIFp3H3FGsW+bkOesYYiACIjAb0og5RxnhACh6izEE42wUZecFijjTbjN50A9aBOvJ2SZTgHt8vBomRp/6O7ljzy4XShplQiIgAgcQqDQRQQDBVHFUvyMY2DQIaPruloC2hWLVoqACIiACIhAbwIKN+3NR1tFQAREQAREoCsBCWhXLFopAiIgAiIgAr0JSEB789FWERABERABEehKQALaFYtWioAIiIAIiEBvAhLQ3ny0VQREQAREQAS6EpCAdsWilSIgAiIgAiLQm4AEtDcfbRUBERABERCBrgQkoF2xaKUIiIAIiIAI9CYgAe3NR1tFQAREQAREoCsBCWhXLFopAiIgAiIgAr0JSEB789FWERABERABEehKQALaFYtWioAIiIAIiEBvAhLQ3ny0VQREQAREQAS6EpCAdsWilSIgAiIgAiLQm4AEtDcfbRUBERABERCBrgQkoF2xaKUIiIAIiIAI9CYgAe3NR1tFQAREQAREoCsBCWhXLFopAiIgAiIgAr0JSEB789FWERABERABEehKQALaFYtWioAIiIAIiEBvAhLQ3ny0VQREQAREQAS6EpCAdsWilSIgAiIgAiLQm4AEtDcfbRUBERABERCBrgQkoF2xaKUIiIAIiIAI9CYgAe3NR1tFQAREQAREoCsBCWhXLFopAiIgAiIgAr0JSEB789FWERABERABEehKQALaFYtWioAIiIAIiEBvAhLQ3ny0VQREQAREQAS6EpCAdsWilSIgAiIgAiLQm4AEtDcfbRUBERABERCBrgQkoF2xaKUIiIAIiIAI9CYgAe3NR1tFQAREQAREoCsBCWhXLFopAiIgAiIgAr0JSEB789FWERABERABEehK4P8DPZegmTuC62QAAAAASUVORK5CYII=;" vertex="1" parent="1">
          <mxGeometry x="246" y="369.99999999999994" width="64" height="70.9" as="geometry" />
        </mxCell>
        <mxCell id="5WDJezlqoj9gCEKwShsY-22" style="edgeStyle=orthogonalEdgeStyle;rounded=0;sketch=1;hachureGap=4;jiggle=2;curveFitting=1;orthogonalLoop=1;jettySize=auto;html=1;exitX=1;exitY=0.5;exitDx=0;exitDy=0;entryX=0;entryY=0.615;entryDx=0;entryDy=0;entryPerimeter=0;strokeColor=#23445D;fontFamily=Architects Daughter;fontSource=https%3A%2F%2Ffonts.googleapis.com%2Fcss%3Ffamily%3DArchitects%2BDaughter;fontSize=16;" edge="1" parent="1" source="5WDJezlqoj9gCEKwShsY-21" target="5WDJezlqoj9gCEKwShsY-19">
          <mxGeometry relative="1" as="geometry" />
        </mxCell>
        <mxCell id="5WDJezlqoj9gCEKwShsY-21" value="" style="image;html=1;image=img/lib/clip_art/people/Suit_Man_Green_128x128.png;sketch=1;hachureGap=4;jiggle=2;curveFitting=1;strokeColor=#FFFFFF;fontFamily=Architects Daughter;fontSource=https%3A%2F%2Ffonts.googleapis.com%2Fcss%3Ffamily%3DArchitects%2BDaughter;fontSize=20;fontColor=#FFFFFF;fillColor=#182E3E;" vertex="1" parent="1">
          <mxGeometry x="60" y="468.44" width="80" height="80" as="geometry" />
        </mxCell>
      </root>
    </mxGraphModel>
  </diagram>
</mxfile>
